<?xml version="1.0" encoding="UTF-8" ?>
<!DOCTYPE svg PUBLIC "-//W3C//DTD SVG 1.1//EN" "http://www.w3.org/Graphics/SVG/1.1/DTD/svg11.dtd">
<svg width="238pt" height="338pt" viewBox="0 0 238 338" version="1.1" xmlns="http://www.w3.org/2000/svg">
<g id="#000000ff">
<path fill="#000000" opacity="1.00" d=" M 102.31 16.11 C 101.11 11.73 99.45 6.53 102.86 2.68 C 105.50 4.81 107.16 7.77 108.37 10.88 C 109.78 9.02 111.39 7.33 113.18 5.83 C 115.95 9.05 116.29 13.39 117.49 17.29 C 121.51 17.60 120.99 22.43 124.27 23.86 C 129.22 28.02 135.92 27.44 141.93 28.03 C 148.00 28.81 154.18 27.71 160.23 28.78 C 164.19 31.30 168.74 34.32 170.22 39.02 C 170.40 45.47 169.20 51.91 167.17 58.01 C 173.19 56.04 179.37 54.17 185.78 54.32 C 189.15 54.47 192.51 54.78 195.88 54.85 C 193.51 64.40 191.85 74.75 184.88 82.23 C 187.28 84.54 189.91 86.59 192.53 88.64 C 191.10 89.40 189.67 90.17 188.25 90.95 C 189.68 92.22 191.13 93.47 192.57 94.73 C 187.48 99.74 179.95 101.29 173.05 100.30 C 176.62 107.81 178.49 116.17 177.42 124.48 C 175.81 122.79 174.62 120.77 173.45 118.77 C 173.14 125.74 172.30 132.74 170.32 139.45 C 168.44 140.74 166.64 142.13 164.93 143.64 C 166.97 146.27 168.74 149.09 170.31 152.02 C 169.67 152.28 168.37 152.80 167.73 153.05 C 167.50 155.97 167.44 158.90 167.19 161.82 C 166.16 164.77 164.44 167.39 162.95 170.11 C 160.63 168.86 158.09 169.04 155.61 169.62 C 162.26 190.26 172.98 209.34 178.92 230.22 C 181.80 236.94 183.37 244.09 185.54 251.05 C 189.64 266.32 190.51 282.39 188.56 298.07 C 187.95 301.67 188.66 306.02 185.75 308.77 C 182.69 311.81 179.04 314.18 175.53 316.64 C 174.98 316.64 174.44 316.63 173.90 316.62 C 175.49 309.78 175.30 302.74 175.66 295.78 C 169.61 294.35 163.37 293.96 157.20 294.72 C 158.23 301.75 156.93 309.51 160.87 315.81 C 163.50 319.96 166.50 323.86 169.72 327.57 C 158.83 329.22 147.74 328.55 136.77 328.21 C 136.25 323.81 135.59 319.42 135.34 314.99 C 135.23 308.54 135.28 302.09 135.26 295.63 C 132.11 295.65 128.94 295.94 125.82 295.51 C 125.49 294.81 124.83 293.42 124.49 292.72 C 124.25 293.45 123.77 294.91 123.52 295.64 C 122.08 295.74 120.64 295.84 119.20 295.95 C 118.62 302.31 118.35 308.75 119.21 315.09 C 120.60 320.06 124.50 324.33 124.62 329.58 C 122.24 331.58 118.98 331.70 116.03 331.80 C 109.54 331.82 102.89 331.68 96.78 329.27 C 96.57 324.82 96.50 320.36 96.55 315.91 C 96.51 310.01 96.50 304.10 97.32 298.25 C 93.06 299.31 88.70 300.10 84.62 301.76 C 78.77 304.29 73.37 307.72 67.97 311.08 C 68.31 313.27 68.65 315.46 69.01 317.66 C 69.07 318.04 69.19 318.79 69.26 319.16 C 68.42 318.63 67.61 318.10 66.79 317.57 C 65.50 316.72 64.23 315.87 62.96 315.00 C 61.23 316.38 59.50 317.76 57.78 319.16 C 51.52 314.24 44.66 310.01 37.10 307.43 C 32.64 306.27 28.14 305.18 23.54 304.69 C 25.04 299.44 23.91 294.18 22.46 289.08 C 21.65 282.84 19.14 277.07 16.93 271.24 C 20.41 271.39 24.09 271.20 27.30 272.79 C 30.61 274.45 33.05 277.33 35.91 279.62 C 35.54 274.28 33.89 269.19 32.61 264.03 C 31.48 259.59 28.89 255.74 26.65 251.81 C 35.83 250.39 44.33 255.21 51.12 260.86 C 52.85 262.43 53.85 264.60 55.04 266.57 C 55.88 255.15 58.34 243.68 63.38 233.34 C 66.82 225.33 70.49 217.41 74.90 209.89 C 81.76 198.00 87.65 185.60 93.32 173.12 C 91.96 172.40 90.61 171.68 89.25 170.97 C 90.30 169.54 91.34 168.11 92.33 166.63 C 90.88 167.20 89.44 167.80 88.00 168.41 C 86.69 165.86 85.06 163.51 83.31 161.25 C 84.47 160.08 84.54 158.73 83.50 157.22 C 82.66 157.38 80.98 157.70 80.15 157.86 C 81.14 153.97 82.11 150.06 82.61 146.07 C 83.13 146.21 84.18 146.48 84.70 146.61 C 85.84 145.67 86.98 144.73 88.12 143.80 C 88.33 142.55 88.54 141.30 88.75 140.06 C 87.29 139.10 85.84 138.13 84.38 137.18 C 83.98 122.63 82.94 107.44 88.46 93.63 C 89.63 89.29 92.69 85.94 94.82 82.10 C 93.48 79.24 91.48 76.77 89.62 74.24 C 85.66 80.01 80.48 84.87 74.59 88.62 C 67.14 94.46 58.41 99.16 48.92 100.37 C 41.57 101.31 35.22 95.23 33.23 88.57 C 32.09 89.30 30.94 90.03 29.80 90.77 C 25.83 89.34 27.21 84.96 27.93 81.85 C 26.21 81.61 24.21 82.12 22.70 81.11 C 21.49 77.21 24.31 73.90 26.38 70.94 C 25.72 68.15 24.45 65.55 23.43 62.88 C 24.28 61.38 24.87 59.18 26.98 59.16 C 30.35 58.92 33.06 61.20 35.23 63.49 C 47.48 60.41 60.09 57.06 70.47 49.55 C 73.36 47.43 76.73 45.88 79.13 43.16 C 81.49 40.52 83.64 37.72 85.94 35.03 C 92.60 39.52 96.20 46.92 100.52 53.42 C 104.04 59.78 107.60 66.14 112.08 71.89 C 118.05 70.68 124.12 69.49 130.24 69.90 C 129.14 68.17 128.09 66.39 127.10 64.59 C 129.04 65.05 130.99 65.51 132.94 65.96 C 132.34 63.40 132.08 60.69 130.82 58.35 C 124.06 55.22 116.33 55.75 109.11 54.49 C 106.23 54.42 104.85 51.56 103.38 49.53 C 100.69 44.95 97.13 40.85 95.12 35.89 C 93.65 32.50 95.32 28.88 96.64 25.73 C 95.21 24.40 93.59 23.22 92.48 21.59 C 91.23 19.41 92.13 16.87 92.58 14.59 C 95.78 15.34 99.02 15.93 102.31 16.11 M 103.08 5.48 C 102.84 10.15 103.60 14.89 105.96 18.98 C 102.00 18.54 98.07 17.96 94.13 17.39 C 94.81 21.17 98.25 23.12 101.58 24.21 C 99.77 26.85 97.34 29.56 97.60 32.99 C 97.87 37.25 100.82 40.63 102.84 44.21 C 104.42 46.56 105.52 49.40 107.77 51.21 C 115.33 52.11 123.00 52.67 130.30 55.08 C 130.71 52.70 131.24 50.33 131.90 48.00 C 135.15 50.62 138.10 53.60 140.83 56.76 C 142.97 47.94 150.45 42.12 157.25 36.83 C 161.68 41.75 162.98 48.41 165.25 54.43 C 166.86 48.89 168.49 42.82 166.99 37.12 C 163.75 33.19 159.30 29.72 153.88 30.44 C 150.83 34.21 147.09 37.33 143.10 40.05 C 143.23 41.09 143.36 42.12 143.49 43.15 C 142.61 42.36 141.74 41.56 140.87 40.76 C 140.74 41.24 140.47 42.20 140.34 42.68 C 135.89 42.58 131.41 43.93 127.00 42.89 C 123.86 42.01 121.98 39.09 120.27 36.53 C 119.27 36.71 117.27 37.07 116.27 37.25 C 117.50 36.43 118.74 35.62 119.98 34.82 C 119.78 34.37 119.38 33.46 119.18 33.01 C 117.82 33.33 116.46 33.63 115.10 33.93 C 116.25 33.04 117.39 32.13 118.53 31.22 C 115.29 23.97 115.57 15.84 112.88 8.44 C 110.53 10.86 109.43 14.02 109.20 17.34 C 106.81 13.56 105.69 9.13 103.08 5.48 M 116.67 19.23 C 117.18 23.27 118.44 27.15 119.85 30.95 C 121.04 30.78 122.23 30.61 123.42 30.44 C 122.32 31.40 121.22 32.35 120.14 33.33 C 121.46 33.93 122.84 34.32 124.27 34.50 C 123.41 35.13 122.55 35.77 121.69 36.40 C 123.25 38.38 124.70 40.84 127.28 41.57 C 130.96 42.29 134.73 41.71 138.42 41.31 C 137.92 39.49 137.42 37.67 136.96 35.84 C 138.23 37.42 139.46 39.03 140.71 40.62 C 140.59 39.57 140.34 37.46 140.22 36.41 C 140.98 37.21 141.74 38.02 142.50 38.82 C 146.01 36.50 149.28 33.82 152.03 30.62 C 145.46 30.66 138.93 29.98 132.41 29.34 C 128.11 28.97 124.02 27.08 120.86 24.16 C 119.38 22.57 118.62 20.36 116.67 19.23 M 86.37 37.61 C 82.73 42.85 79.52 48.49 74.71 52.79 C 75.48 51.10 76.25 49.41 77.04 47.73 C 74.66 49.62 72.24 51.47 69.75 53.22 C 69.88 55.77 70.12 58.31 70.43 60.85 C 71.51 60.71 73.66 60.44 74.73 60.31 C 73.49 61.06 72.26 61.82 71.04 62.59 C 71.92 64.21 72.80 65.83 73.69 67.44 C 75.70 66.69 77.74 64.99 79.95 66.07 C 79.38 68.00 76.80 68.11 75.34 69.12 C 75.75 69.65 76.58 70.71 77.00 71.24 C 78.09 70.79 79.18 70.35 80.27 69.91 C 79.54 70.94 78.81 71.97 78.08 72.99 C 80.24 74.35 82.54 75.48 84.94 76.33 C 85.87 75.06 86.81 73.79 87.75 72.52 C 87.43 71.64 87.12 70.77 86.81 69.90 C 85.62 70.55 84.43 71.20 83.25 71.85 C 83.24 71.51 83.24 70.83 83.23 70.49 C 84.54 69.04 85.86 67.59 87.18 66.14 C 91.88 73.60 96.66 81.08 102.78 87.48 C 105.53 83.11 108.95 79.17 113.00 75.96 C 102.19 64.57 97.77 48.53 86.37 37.61 M 146.73 49.76 C 143.91 53.67 142.65 58.39 141.69 63.03 C 138.91 59.53 136.36 55.80 133.04 52.78 C 133.18 57.22 133.99 61.63 135.38 65.86 C 134.23 66.62 133.09 67.39 131.95 68.16 C 131.92 69.75 131.89 71.34 131.87 72.94 C 126.20 71.90 120.37 72.57 114.85 74.09 C 115.97 74.96 117.18 75.67 118.43 76.33 C 114.78 78.20 111.70 80.96 108.75 83.77 C 105.26 87.13 103.32 91.65 100.64 95.62 C 100.81 93.77 101.05 91.93 101.41 90.11 C 99.71 88.12 98.00 86.13 96.19 84.23 C 95.74 84.87 94.82 86.14 94.36 86.78 C 91.39 90.85 89.93 95.72 88.67 100.52 C 85.67 110.83 86.49 121.67 86.26 132.27 C 85.89 134.48 86.75 136.51 88.64 137.72 C 88.60 134.97 88.56 132.22 88.86 129.48 C 88.99 128.35 89.24 126.09 89.36 124.95 C 89.88 130.10 89.21 135.97 92.45 140.34 C 91.73 141.00 91.01 141.66 90.29 142.32 C 90.76 144.96 90.16 147.54 89.09 149.95 C 87.46 149.54 85.83 149.14 84.20 148.74 C 83.84 150.88 83.48 153.02 83.12 155.16 C 84.84 154.82 86.56 154.48 88.28 154.13 C 87.43 155.17 86.58 156.21 85.80 157.31 C 86.82 158.81 88.82 158.48 90.37 158.90 C 88.91 159.78 87.42 160.60 85.91 161.39 C 86.94 162.64 87.97 163.90 89.00 165.17 C 90.09 164.79 91.19 164.41 92.29 164.04 C 92.29 161.83 92.30 159.63 92.32 157.42 C 93.43 157.43 94.53 157.44 95.63 157.44 C 95.02 158.93 94.41 160.41 93.81 161.90 C 94.65 162.13 96.34 162.58 97.18 162.81 C 96.07 163.58 94.94 164.34 93.82 165.11 C 94.12 166.63 94.42 168.16 94.72 169.70 C 98.00 169.01 101.23 168.05 104.36 166.85 C 104.13 168.31 103.90 169.76 103.67 171.22 C 105.15 171.75 106.63 172.27 108.12 172.75 C 108.37 173.17 108.86 174.02 109.10 174.44 C 106.96 175.51 103.86 173.75 101.44 173.43 C 101.26 172.70 100.91 171.24 100.73 170.51 C 99.39 170.93 98.04 171.34 96.70 171.75 C 96.13 173.07 95.57 174.38 95.02 175.70 C 89.54 186.71 85.63 198.50 78.79 208.80 C 71.32 219.78 66.92 232.38 61.72 244.49 C 60.81 246.54 60.62 248.78 60.57 250.99 C 61.40 248.21 62.23 245.37 63.87 242.94 C 69.78 233.98 77.03 226.02 83.67 217.61 C 87.46 212.75 92.65 209.34 97.14 205.19 C 102.87 199.84 109.90 195.99 115.17 190.12 C 117.90 186.97 120.39 183.63 122.81 180.24 C 124.27 178.24 125.60 176.15 126.87 174.03 C 127.32 174.60 128.23 175.74 128.68 176.31 C 126.90 178.32 125.54 180.64 124.20 182.96 C 124.88 184.20 125.57 185.46 126.25 186.71 C 126.92 187.70 127.59 188.70 128.26 189.70 C 129.20 189.66 131.08 189.60 132.02 189.57 C 131.25 190.13 129.69 191.26 128.91 191.82 C 129.78 192.72 130.19 194.32 131.57 194.51 C 134.92 194.91 138.32 194.67 141.69 195.01 C 141.65 195.83 141.59 197.46 141.55 198.28 C 142.58 198.24 144.63 198.16 145.66 198.13 C 145.55 197.45 145.34 196.10 145.23 195.43 C 145.18 193.78 145.05 192.10 144.23 190.64 C 141.06 184.18 136.67 178.39 133.77 171.79 C 132.46 171.62 131.16 171.46 129.85 171.30 L 129.88 172.34 C 129.44 172.33 128.57 172.31 128.13 172.31 C 128.22 171.88 128.41 171.03 128.50 170.60 C 129.64 170.28 130.79 169.97 131.94 169.66 L 131.44 168.93 C 136.26 168.27 134.73 161.04 130.65 160.07 L 130.06 161.68 C 128.78 160.44 127.50 159.18 126.27 157.89 C 126.42 157.74 126.72 157.43 126.87 157.28 L 127.21 157.70 C 130.16 156.82 133.16 157.07 136.13 157.74 C 135.47 155.82 133.55 155.49 131.85 155.00 C 131.83 153.59 131.81 152.19 131.80 150.78 C 128.18 149.91 124.68 148.62 121.34 146.99 C 121.90 146.83 123.03 146.53 123.60 146.38 C 127.70 148.40 132.44 150.48 137.05 148.95 C 142.71 147.09 147.72 143.28 150.94 138.25 C 151.28 137.61 151.62 136.97 151.96 136.33 C 148.85 136.44 145.72 136.29 142.62 136.58 C 142.56 136.84 142.43 137.36 142.37 137.62 C 141.03 139.64 139.60 141.59 138.02 143.43 C 134.76 141.59 130.97 141.86 127.37 141.62 C 128.81 141.21 130.25 140.84 131.71 140.52 C 130.60 139.22 129.64 137.78 128.38 136.62 C 126.95 136.41 125.50 136.43 124.07 136.38 C 124.32 135.77 124.82 134.54 125.07 133.93 C 125.82 133.99 127.34 134.10 128.09 134.15 C 129.79 132.09 133.25 131.16 135.03 133.66 C 135.26 133.60 135.70 133.47 135.92 133.41 C 138.41 130.96 141.40 132.74 142.93 135.21 C 144.91 135.17 146.93 135.28 148.87 134.82 C 150.49 134.80 152.12 134.77 153.75 134.74 C 153.63 133.28 153.50 131.83 153.34 130.37 L 155.14 131.13 C 155.55 137.34 155.14 143.53 154.40 149.69 C 158.43 144.71 159.52 138.30 161.05 132.28 C 161.99 136.56 160.66 140.82 159.44 144.88 C 161.53 143.43 164.63 142.32 165.24 139.52 C 165.67 136.94 165.56 134.31 165.86 131.72 C 167.72 133.99 167.11 137.04 167.57 139.73 C 169.98 135.58 170.10 130.68 170.79 126.05 C 171.18 121.15 171.97 116.14 170.77 111.28 C 170.87 108.64 169.81 106.17 169.14 103.67 C 172.25 108.40 172.30 114.52 175.82 118.97 C 175.36 111.39 172.93 104.02 169.48 97.31 C 169.88 96.97 170.68 96.30 171.08 95.96 L 172.13 97.30 C 177.92 99.46 184.21 97.45 189.53 94.89 C 185.93 91.44 181.43 89.11 177.89 85.59 C 187.09 79.07 191.43 67.82 192.82 56.99 C 182.86 56.05 172.46 57.22 163.74 62.43 C 162.97 54.78 160.80 47.24 156.80 40.64 C 152.96 43.07 149.43 46.08 146.73 49.76 M 39.90 64.79 C 38.17 65.15 36.36 65.90 34.59 65.50 C 32.22 63.54 29.91 61.38 26.77 60.78 C 26.34 64.83 28.19 68.56 31.46 70.89 C 28.50 73.03 25.64 75.55 24.65 79.22 C 27.30 79.38 29.94 78.98 32.34 77.81 C 30.22 80.71 29.28 84.22 28.95 87.75 C 31.25 86.87 32.75 84.94 34.01 82.92 C 34.93 87.82 36.71 92.99 41.14 95.79 C 47.04 99.86 54.70 97.40 60.57 94.54 C 69.14 90.03 77.58 84.80 84.10 77.52 C 81.59 76.53 79.20 75.26 77.02 73.68 C 75.82 74.48 74.63 75.28 73.43 76.08 C 74.30 74.81 75.18 73.55 76.07 72.30 C 75.03 69.55 72.18 70.50 69.95 70.88 C 70.80 69.97 71.64 69.06 72.49 68.15 C 71.56 66.35 70.65 64.53 69.76 62.72 C 68.98 62.66 67.42 62.54 66.64 62.48 C 67.39 61.85 68.15 61.23 68.90 60.61 C 68.74 58.48 68.59 56.35 68.43 54.22 C 59.60 59.36 49.63 61.93 39.90 64.79 M 129.14 134.98 C 130.11 137.08 131.51 138.99 133.44 140.33 C 135.94 138.58 133.39 135.32 132.19 133.47 C 131.42 133.84 129.90 134.60 129.14 134.98 M 137.56 134.63 C 135.15 136.32 136.92 139.69 136.96 142.05 C 138.85 140.39 140.69 138.12 140.47 135.45 C 140.67 134.08 138.22 133.70 137.56 134.63 M 149.55 147.92 C 149.36 146.69 149.17 145.47 148.97 144.24 C 146.50 145.28 146.08 147.57 146.46 149.95 C 145.02 149.43 143.62 148.79 142.12 148.50 C 139.43 148.70 140.45 151.94 140.01 153.75 C 139.34 153.37 137.98 152.61 137.30 152.23 C 137.38 154.70 138.32 156.99 139.41 159.17 C 138.85 159.62 137.73 160.51 137.17 160.95 C 137.59 161.64 138.43 163.02 138.85 163.72 C 139.38 163.28 140.44 162.41 140.98 161.97 C 140.95 163.17 140.93 164.37 140.91 165.57 C 140.07 165.77 138.39 166.18 137.55 166.39 C 138.59 168.40 140.54 169.06 142.71 169.06 C 143.54 167.57 144.67 166.31 146.35 165.79 C 146.67 167.45 147.62 169.07 149.12 169.91 C 150.86 169.46 152.50 168.67 154.15 167.97 C 154.26 166.60 154.37 165.24 154.49 163.89 C 156.99 164.85 159.42 165.98 161.79 167.21 C 162.95 165.20 164.10 163.19 165.26 161.17 C 164.19 160.35 163.12 159.54 162.05 158.74 C 163.80 158.32 165.42 157.62 166.13 155.81 C 164.73 155.34 163.33 154.89 161.92 154.45 C 163.89 153.52 165.79 152.46 167.61 151.27 C 166.70 149.72 165.79 148.17 164.89 146.62 C 164.00 146.99 163.12 147.36 162.23 147.74 C 162.25 147.12 162.28 145.87 162.30 145.25 C 158.12 146.48 155.90 150.30 153.26 153.41 C 153.19 150.01 153.19 146.61 153.05 143.21 C 151.09 144.07 150.42 146.16 149.55 147.92 M 144.69 171.27 C 143.63 171.33 142.56 171.39 141.50 171.45 C 140.41 172.55 139.32 173.65 138.22 174.74 C 140.99 179.19 142.81 184.15 145.67 188.55 C 151.26 197.23 157.30 205.59 163.53 213.82 C 162.95 214.43 162.37 215.03 161.78 215.63 C 161.38 215.14 160.59 214.17 160.20 213.69 C 162.61 216.87 163.89 221.82 168.13 222.96 C 166.79 220.88 165.17 219.00 163.50 217.19 C 164.00 216.62 164.50 216.06 165.02 215.51 C 168.19 219.54 171.48 223.59 175.47 226.84 C 170.73 209.49 161.78 193.70 155.45 176.92 C 154.80 175.01 154.12 173.11 153.45 171.21 C 152.06 171.67 150.69 172.24 149.23 172.45 C 148.01 171.35 146.99 170.04 145.85 168.86 C 145.56 169.46 144.98 170.67 144.69 171.27 M 123.18 185.01 C 121.56 187.12 119.79 189.12 118.34 191.35 C 116.89 193.25 117.97 195.68 118.16 197.79 C 122.01 197.64 127.08 200.00 130.03 196.79 C 128.99 196.68 126.91 196.46 125.87 196.35 C 126.85 195.75 127.83 195.15 128.81 194.56 C 128.48 193.83 128.14 193.10 127.81 192.37 C 127.11 192.27 125.71 192.07 125.01 191.97 C 125.39 191.47 126.16 190.45 126.55 189.95 C 125.42 188.30 124.30 186.65 123.18 185.01 M 113.51 195.99 C 111.21 197.09 108.96 198.36 107.07 200.09 C 104.92 202.09 104.82 205.65 106.55 207.96 C 108.03 206.96 109.50 205.95 110.99 204.97 C 107.55 204.32 108.16 201.01 109.52 198.73 C 109.71 199.89 110.09 202.21 110.28 203.37 C 112.66 202.43 113.34 200.12 113.76 197.82 C 114.50 197.64 115.98 197.27 116.72 197.09 C 116.31 196.25 115.50 194.57 115.10 193.73 C 114.70 194.30 113.91 195.43 113.51 195.99 M 131.32 196.34 C 130.81 199.69 130.73 203.08 130.79 206.46 C 133.74 206.66 136.69 206.60 139.64 206.53 C 139.92 203.13 139.88 199.72 139.76 196.33 C 136.94 196.25 134.13 196.26 131.32 196.34 M 142.29 199.38 C 142.19 200.77 142.09 202.16 142.00 203.56 C 144.65 203.42 147.29 203.07 149.88 202.48 C 149.56 201.69 148.92 200.11 148.60 199.33 C 146.49 199.34 144.39 199.36 142.29 199.38 M 115.20 202.45 C 119.84 202.75 124.46 203.12 129.10 203.46 C 129.02 202.73 128.87 201.28 128.80 200.55 C 124.37 200.42 119.97 200.01 115.59 199.40 C 115.46 200.41 115.33 201.43 115.20 202.45 M 150.78 201.76 C 150.24 205.69 154.35 207.54 157.05 209.38 C 155.36 206.53 153.27 203.94 150.78 201.76 M 87.35 217.28 C 78.41 227.28 69.85 237.85 63.95 249.99 C 59.48 259.21 59.29 269.74 59.20 279.78 C 57.77 279.78 56.35 279.78 54.93 279.79 C 54.80 274.40 54.31 268.62 50.77 264.27 C 45.86 258.48 38.52 254.97 30.96 254.55 C 36.97 264.47 38.88 276.29 38.37 287.73 C 44.94 289.47 50.37 293.60 56.31 296.61 C 62.14 295.16 67.62 292.19 73.37 290.28 C 73.32 288.16 73.29 286.06 73.25 283.95 C 73.60 284.27 74.30 284.90 74.65 285.22 C 74.80 287.62 74.91 290.01 74.98 292.42 C 68.77 293.98 63.08 297.06 56.92 298.73 C 53.21 297.56 50.25 294.78 46.60 293.46 C 43.40 292.31 40.24 290.90 36.88 290.37 C 34.58 290.85 32.44 292.58 30.01 291.92 C 27.02 290.86 27.27 286.32 29.78 284.83 C 31.39 283.32 33.65 284.72 35.53 284.83 C 32.99 279.17 27.68 275.08 21.39 274.72 C 24.05 283.81 27.15 293.19 26.10 302.80 C 37.38 304.77 48.60 308.73 57.32 316.38 C 61.45 313.52 65.16 310.10 69.41 307.41 C 74.11 304.29 79.28 301.99 84.37 299.58 C 81.84 298.96 79.33 298.31 76.86 297.53 C 83.03 297.55 89.26 297.81 95.34 296.52 C 96.15 294.89 96.98 293.28 97.81 291.67 C 96.00 290.21 93.88 289.25 91.90 288.06 C 91.91 286.71 91.98 285.36 92.08 284.02 C 91.70 282.15 91.34 280.28 91.02 278.40 C 93.32 277.81 95.95 277.47 97.53 275.47 C 99.91 273.34 99.98 269.97 99.87 267.01 C 99.41 257.34 99.07 247.65 99.61 237.98 C 96.32 236.91 93.12 235.58 90.09 233.91 C 93.17 226.96 96.78 220.24 101.03 213.95 C 103.27 210.82 102.46 206.75 102.78 203.15 C 97.80 208.04 92.21 212.26 87.35 217.28 M 113.83 205.32 C 104.75 212.80 96.35 221.95 92.90 233.44 C 108.74 238.11 125.61 239.61 141.95 236.95 C 150.41 235.61 158.95 233.84 166.77 230.26 C 162.98 221.36 158.33 212.41 150.27 206.63 C 149.52 205.91 148.77 205.18 148.02 204.46 C 143.30 203.74 140.57 208.64 135.93 208.21 C 132.96 208.72 130.03 208.03 128.26 205.45 C 123.47 205.24 118.56 204.04 113.83 205.32 M 166.96 224.70 C 167.90 227.06 168.88 229.41 169.91 231.74 C 167.57 232.83 165.29 234.05 162.98 235.21 C 165.34 235.28 167.74 235.21 170.04 235.80 C 172.59 236.84 174.42 238.99 176.46 240.74 C 177.88 238.69 176.39 236.65 175.19 234.98 C 177.56 234.87 177.20 232.46 175.77 231.35 C 175.78 230.57 175.80 229.01 175.81 228.23 C 174.56 228.22 173.31 228.21 172.06 228.22 C 171.37 226.71 170.66 225.21 169.95 223.71 C 169.20 223.96 167.70 224.45 166.96 224.70 M 178.25 234.53 C 178.60 236.38 179.02 238.21 179.43 240.05 C 178.42 240.76 177.41 241.49 176.41 242.21 C 176.52 246.48 175.33 250.72 175.93 254.99 C 178.04 274.37 178.92 293.98 176.74 313.39 C 179.75 310.92 183.78 309.12 185.46 305.41 C 189.65 281.70 187.00 256.94 178.25 234.53 M 135.83 240.74 C 136.09 242.89 136.36 245.04 136.77 247.16 C 138.52 255.80 138.76 264.67 138.07 273.44 C 140.00 273.03 141.93 272.62 143.85 272.16 C 144.47 270.96 144.99 269.69 145.87 268.65 C 148.79 268.75 151.67 269.30 154.56 269.73 C 154.52 263.84 154.99 257.97 155.47 252.11 C 156.00 247.32 156.04 242.50 156.16 237.70 C 149.43 239.00 142.57 239.46 135.83 240.74 M 163.17 245.07 C 163.10 245.38 162.95 246.00 162.87 246.31 L 163.95 245.77 C 164.92 248.64 165.20 251.80 167.08 254.30 C 168.83 251.96 168.59 248.97 168.85 246.24 L 167.31 245.85 C 168.62 245.27 169.93 244.71 171.24 244.15 C 171.20 245.48 171.16 246.81 171.12 248.15 C 171.91 248.36 172.70 248.58 173.50 248.80 C 173.81 246.46 174.14 244.13 174.49 241.80 C 172.26 239.67 169.65 237.99 166.58 237.42 C 165.56 237.46 163.53 237.55 162.52 237.59 C 161.70 240.12 161.47 242.82 163.17 245.07 M 102.53 238.30 C 101.96 245.72 102.22 253.19 103.04 260.57 C 104.42 258.28 105.38 255.71 105.32 252.99 C 105.32 248.49 105.58 243.90 104.63 239.48 C 104.11 239.18 103.06 238.60 102.53 238.30 M 108.34 240.05 C 107.69 244.76 108.17 249.53 108.15 254.27 C 107.17 260.58 104.62 266.51 103.31 272.73 C 103.48 273.05 103.82 273.69 103.98 274.00 C 106.81 272.99 109.65 269.68 112.48 272.53 C 115.14 272.88 117.78 273.45 120.28 274.47 C 124.12 265.72 125.86 256.27 127.55 246.92 C 127.58 244.86 127.60 242.80 127.63 240.75 C 122.77 240.81 117.88 240.78 113.07 240.03 C 111.53 240.04 109.74 239.21 108.34 240.05 M 131.24 240.68 C 129.91 248.26 128.60 255.87 126.37 263.25 C 125.09 268.42 123.08 273.48 122.63 278.82 C 123.75 279.90 125.54 280.39 126.22 281.87 C 127.77 287.64 117.76 288.38 120.16 294.43 C 122.72 292.50 124.23 289.62 126.08 287.09 C 126.49 289.21 126.85 291.34 127.20 293.48 C 129.80 293.48 132.41 293.42 135.02 293.31 C 135.12 291.84 135.22 290.36 135.33 288.90 C 134.06 288.17 132.79 287.45 131.51 286.73 C 130.47 284.70 129.23 282.76 128.48 280.61 C 127.92 278.24 130.33 276.93 131.82 275.64 C 132.06 274.00 132.29 272.35 132.51 270.71 C 133.60 270.46 134.69 270.21 135.78 269.97 C 137.46 260.91 135.12 251.88 133.73 242.96 C 133.80 241.45 132.32 241.18 131.24 240.68 M 158.88 249.62 C 158.42 251.84 158.51 254.11 158.59 256.36 C 160.46 254.60 161.70 252.15 161.48 249.53 C 160.83 249.56 159.53 249.60 158.88 249.62 M 163.51 252.10 C 162.98 254.95 161.57 258.51 164.31 260.74 C 165.67 259.26 165.43 257.12 165.85 255.30 C 165.06 254.23 164.29 253.16 163.51 252.10 M 169.07 254.95 C 166.00 256.83 166.83 262.01 170.11 263.23 C 169.90 258.95 172.57 254.45 170.82 250.44 C 170.20 251.92 169.64 253.44 169.07 254.95 M 173.41 255.64 C 172.69 258.65 172.29 261.74 171.46 264.74 C 170.04 266.14 168.24 264.72 166.72 264.29 C 164.21 263.45 162.02 261.91 160.63 259.63 C 159.40 259.48 158.17 259.34 156.94 259.21 C 156.84 263.84 156.83 268.47 156.91 273.11 C 157.82 273.87 158.74 274.64 159.66 275.41 C 161.09 275.33 162.51 275.24 163.95 275.16 C 164.19 277.37 164.13 279.59 163.78 281.79 C 164.08 283.07 164.45 284.34 164.64 285.65 C 162.21 287.97 157.04 287.98 157.47 292.39 C 159.21 292.26 160.96 292.12 162.71 291.99 C 162.84 291.17 163.11 289.53 163.24 288.71 C 164.18 289.85 165.12 291.00 166.06 292.15 C 169.24 292.60 172.40 293.08 175.57 293.59 C 176.18 280.94 175.69 268.12 173.41 255.64 M 146.48 269.95 C 146.44 271.20 146.41 272.45 146.39 273.71 C 144.35 274.01 142.32 274.35 140.28 274.62 C 140.07 275.08 139.64 276.00 139.43 276.45 C 141.16 276.91 142.26 277.99 142.74 279.70 C 141.93 279.24 140.32 278.31 139.51 277.84 C 139.10 278.64 138.69 279.44 138.29 280.25 C 138.14 279.45 137.85 277.86 137.70 277.06 C 137.39 274.68 136.15 272.32 133.47 272.06 C 133.78 273.74 134.13 275.42 134.52 277.10 C 132.39 277.74 130.63 279.02 130.61 281.49 C 131.45 281.88 132.28 282.28 133.12 282.68 C 132.95 283.33 132.62 284.64 132.45 285.29 C 133.80 285.81 135.17 286.28 136.55 286.72 C 136.58 285.97 136.62 284.48 136.65 283.73 C 137.53 283.47 138.42 283.21 139.32 282.96 C 139.34 283.81 139.37 284.67 139.40 285.52 C 138.19 286.41 137.37 287.58 136.94 289.02 C 137.90 288.71 139.82 288.11 140.78 287.80 C 146.88 289.79 154.64 289.99 159.57 285.31 C 160.55 285.12 161.52 284.95 162.50 284.79 C 160.37 282.19 162.16 279.50 162.91 276.82 C 161.60 277.50 160.44 278.39 159.39 279.41 C 158.24 277.22 156.68 275.12 154.02 274.84 C 153.31 273.42 152.57 272.00 151.81 270.62 C 151.30 272.02 150.84 273.44 150.39 274.87 C 149.63 272.82 148.88 270.48 146.48 269.95 M 108.56 277.09 C 107.73 276.23 106.89 275.38 106.05 274.54 C 105.64 275.06 104.81 276.09 104.40 276.61 C 103.75 276.17 102.43 275.30 101.78 274.86 C 99.59 275.83 98.32 278.20 96.57 279.76 C 97.48 279.73 99.31 279.66 100.22 279.63 C 99.57 280.37 98.91 281.12 98.26 281.87 C 98.97 283.07 99.68 284.27 100.39 285.48 C 100.81 285.33 101.64 285.03 102.06 284.88 C 101.52 285.53 100.97 286.18 100.41 286.83 C 99.21 285.53 98.01 284.23 96.79 282.96 C 96.81 281.94 96.84 280.92 96.86 279.92 C 95.69 279.69 94.50 279.51 93.32 279.38 C 91.92 280.84 94.07 282.11 94.73 283.28 C 94.42 284.00 93.82 285.43 93.51 286.15 C 96.83 287.66 100.12 290.64 103.94 288.71 C 107.17 289.87 110.51 291.35 114.03 290.67 C 118.91 290.15 122.59 286.41 125.15 282.51 C 124.00 282.42 122.85 282.34 121.70 282.27 C 120.98 278.72 118.21 275.53 114.54 274.96 C 114.17 275.60 113.45 276.88 113.08 277.52 C 112.01 275.58 110.91 273.65 109.69 271.81 C 108.94 273.47 108.67 275.28 108.56 277.09 M 31.23 286.21 C 28.89 286.82 29.45 290.97 32.09 290.12 C 35.47 290.47 34.11 284.67 31.23 286.21 M 137.33 291.64 C 137.65 303.06 136.75 314.56 138.85 325.87 C 147.63 325.99 156.41 326.41 165.19 325.88 C 164.41 324.75 163.63 323.61 162.86 322.49 C 156.47 322.74 150.05 322.98 143.67 322.43 C 149.91 322.07 156.17 322.35 162.42 322.19 C 158.75 317.86 156.87 312.53 154.39 307.53 C 152.89 309.07 151.26 310.51 149.34 311.51 C 150.43 309.85 151.63 308.25 152.87 306.69 C 151.79 305.42 150.71 304.14 149.68 302.83 C 151.24 303.54 152.78 304.28 154.32 305.04 C 155.60 302.03 155.21 298.83 154.14 295.84 C 152.70 296.75 151.26 297.66 149.81 298.57 C 150.62 297.26 151.45 295.97 152.28 294.69 C 151.49 293.47 150.70 292.24 149.91 291.02 C 145.71 290.78 141.24 289.43 137.33 291.64 M 150.85 290.77 C 151.43 291.42 152.60 292.71 153.18 293.36 C 154.94 293.24 154.76 291.35 155.19 290.10 C 153.74 290.31 152.29 290.53 150.85 290.77 M 99.62 294.33 C 98.43 305.43 98.46 316.64 99.26 327.78 C 106.78 330.10 114.86 329.93 122.47 328.12 C 121.12 323.59 118.41 319.60 117.13 315.06 C 116.25 307.53 116.62 299.87 117.52 292.36 C 113.34 292.84 109.12 292.73 105.02 291.76 C 103.02 291.22 99.81 291.93 99.62 294.33 M 65.10 313.19 C 64.58 314.55 65.02 315.10 66.44 314.84 C 66.96 313.47 66.52 312.92 65.10 313.19 Z" />
<path fill="#000000" opacity="1.00" d=" M 108.26 18.94 C 111.84 17.19 113.92 22.41 113.02 25.29 C 112.05 22.92 111.26 20.22 108.59 19.22 C 108.90 21.10 109.38 22.94 109.96 24.75 C 109.12 24.63 107.45 24.38 106.62 24.25 C 107.18 24.94 108.29 26.32 108.85 27.00 C 107.21 27.77 105.56 28.52 103.90 29.23 C 104.68 28.40 105.46 27.57 106.24 26.75 C 104.77 23.90 107.54 21.56 108.26 18.94 Z" />
<path fill="#000000" opacity="1.00" d=" M 58.87 69.10 C 59.84 64.45 62.88 60.43 66.57 57.54 C 64.75 60.88 62.42 63.89 60.61 67.23 C 63.84 67.47 67.09 67.48 70.34 67.51 C 66.68 68.90 62.77 69.54 58.87 69.10 Z" />
<path fill="#000000" opacity="1.00" d=" M 157.43 98.85 C 161.66 103.32 161.89 109.74 160.50 115.43 C 159.90 114.31 159.34 113.19 158.80 112.05 C 158.27 113.99 157.00 114.84 154.98 114.61 C 153.84 113.90 152.71 113.19 151.57 112.50 C 153.17 112.52 154.77 112.54 156.38 112.55 C 156.26 109.67 156.08 106.80 155.86 103.94 C 157.37 105.90 158.71 107.98 160.08 110.04 C 159.63 106.21 158.49 102.53 157.43 98.85 Z" />
</g>
<g id="#564c66ff">
<path fill="#564c66" opacity="1.00" d=" M 103.08 5.48 C 105.69 9.13 106.81 13.56 109.20 17.34 C 109.43 14.02 110.53 10.86 112.88 8.44 C 115.57 15.84 115.29 23.97 118.53 31.22 C 117.39 32.13 116.25 33.04 115.10 33.93 C 116.46 33.63 117.82 33.33 119.18 33.01 C 119.38 33.46 119.78 34.37 119.98 34.82 C 118.74 35.62 117.50 36.43 116.27 37.25 C 117.27 37.07 119.27 36.71 120.27 36.53 C 121.98 39.09 123.86 42.01 127.00 42.89 C 131.41 43.93 135.89 42.58 140.34 42.68 C 140.47 42.20 140.74 41.24 140.87 40.76 C 141.74 41.56 142.61 42.36 143.49 43.15 C 143.36 42.12 143.23 41.09 143.10 40.05 C 147.09 37.33 150.83 34.21 153.88 30.44 C 159.30 29.72 163.75 33.19 166.99 37.12 C 168.49 42.82 166.86 48.89 165.25 54.43 C 162.98 48.41 161.68 41.75 157.25 36.83 C 150.45 42.12 142.97 47.94 140.83 56.76 C 138.10 53.60 135.15 50.62 131.90 48.00 C 131.24 50.33 130.71 52.70 130.30 55.08 C 123.00 52.67 115.33 52.11 107.77 51.21 C 105.52 49.40 104.42 46.56 102.84 44.21 C 100.82 40.63 97.87 37.25 97.60 32.99 C 97.34 29.56 99.77 26.85 101.58 24.21 C 98.25 23.12 94.81 21.17 94.13 17.39 C 98.07 17.96 102.00 18.54 105.96 18.98 C 103.60 14.89 102.84 10.15 103.08 5.48 M 108.26 18.94 C 107.54 21.56 104.77 23.90 106.24 26.75 C 105.46 27.57 104.68 28.40 103.90 29.23 C 105.56 28.52 107.21 27.77 108.85 27.00 C 108.29 26.32 107.18 24.94 106.62 24.25 C 107.45 24.38 109.12 24.63 109.96 24.75 C 109.38 22.94 108.90 21.10 108.59 19.22 C 111.26 20.22 112.05 22.92 113.02 25.29 C 113.92 22.41 111.84 17.19 108.26 18.94 Z" />
<path fill="#564c66" opacity="1.00" d=" M 86.37 37.61 C 97.77 48.53 102.19 64.57 113.00 75.96 C 108.95 79.17 105.53 83.11 102.78 87.48 C 96.66 81.08 91.88 73.60 87.18 66.14 C 85.86 67.59 84.54 69.04 83.23 70.49 C 83.24 70.83 83.24 71.51 83.25 71.85 C 84.43 71.20 85.62 70.55 86.81 69.90 C 87.12 70.77 87.43 71.64 87.75 72.52 C 86.81 73.79 85.87 75.06 84.94 76.33 C 82.54 75.48 80.24 74.35 78.08 72.99 C 78.81 71.97 79.54 70.94 80.27 69.91 C 79.18 70.35 78.09 70.79 77.00 71.24 C 76.58 70.71 75.75 69.65 75.34 69.12 C 76.80 68.11 79.38 68.00 79.95 66.07 C 77.74 64.99 75.70 66.69 73.69 67.44 C 72.80 65.83 71.92 64.21 71.04 62.59 C 72.26 61.82 73.49 61.06 74.73 60.31 C 73.66 60.44 71.51 60.71 70.43 60.85 C 70.12 58.31 69.88 55.77 69.75 53.22 C 72.24 51.47 74.66 49.62 77.04 47.73 C 76.25 49.41 75.48 51.10 74.71 52.79 C 79.52 48.49 82.73 42.85 86.37 37.61 Z" />
</g>
<g id="#47364eff">
<path fill="#47364e" opacity="1.00" d=" M 116.67 19.23 C 118.62 20.36 119.38 22.57 120.86 24.16 C 124.02 27.08 128.11 28.97 132.41 29.34 C 138.93 29.98 145.46 30.66 152.03 30.62 C 149.28 33.82 146.01 36.50 142.50 38.82 C 141.74 38.02 140.98 37.21 140.22 36.41 C 140.34 37.46 140.59 39.57 140.71 40.62 C 139.46 39.03 138.23 37.42 136.96 35.84 C 137.42 37.67 137.92 39.49 138.42 41.31 C 134.73 41.71 130.96 42.29 127.28 41.57 C 124.70 40.84 123.25 38.38 121.69 36.40 C 122.55 35.77 123.41 35.13 124.27 34.50 C 122.84 34.32 121.46 33.93 120.14 33.33 C 121.22 32.35 122.32 31.40 123.42 30.44 C 122.23 30.61 121.04 30.78 119.85 30.95 C 118.44 27.15 117.18 23.27 116.67 19.23 Z" />
<path fill="#47364e" opacity="1.00" d=" M 39.90 64.79 C 49.63 61.93 59.60 59.36 68.43 54.22 C 68.59 56.35 68.74 58.48 68.90 60.61 C 68.15 61.23 67.39 61.85 66.64 62.48 C 67.42 62.54 68.98 62.66 69.76 62.72 C 70.65 64.53 71.56 66.35 72.49 68.15 C 71.64 69.06 70.80 69.97 69.95 70.88 C 72.18 70.50 75.03 69.55 76.07 72.30 C 75.18 73.55 74.30 74.81 73.43 76.08 C 74.63 75.28 75.82 74.48 77.02 73.68 C 79.20 75.26 81.59 76.53 84.10 77.52 C 77.58 84.80 69.14 90.03 60.57 94.54 C 54.70 97.40 47.04 99.86 41.14 95.79 C 36.71 92.99 34.93 87.82 34.01 82.92 C 32.75 84.94 31.25 86.87 28.95 87.75 C 29.28 84.22 30.22 80.71 32.34 77.81 C 29.94 78.98 27.30 79.38 24.65 79.22 C 25.64 75.55 28.50 73.03 31.46 70.89 C 28.19 68.56 26.34 64.83 26.77 60.78 C 29.91 61.38 32.22 63.54 34.59 65.50 C 36.36 65.90 38.17 65.15 39.90 64.79 M 58.87 69.10 C 62.77 69.54 66.68 68.90 70.34 67.51 C 67.09 67.48 63.84 67.47 60.61 67.23 C 62.42 63.89 64.75 60.88 66.57 57.54 C 62.88 60.43 59.84 64.45 58.87 69.10 Z" />
</g>
<g id="#312941ff">
<path fill="#312941" opacity="1.00" d=" M 146.73 49.76 C 149.43 46.08 152.96 43.07 156.80 40.64 C 160.80 47.24 162.97 54.78 163.74 62.43 C 172.46 57.22 182.86 56.05 192.82 56.99 C 191.43 67.82 187.09 79.07 177.89 85.59 C 181.43 89.11 185.93 91.44 189.53 94.89 C 184.21 97.45 177.92 99.46 172.13 97.30 C 173.36 96.17 174.60 95.04 175.84 93.91 C 173.39 93.05 170.82 92.65 168.25 92.31 C 170.47 92.30 172.68 92.26 174.89 92.06 C 175.28 91.77 176.05 91.19 176.43 90.90 C 176.64 88.85 177.03 86.31 175.10 84.91 C 171.86 82.53 167.53 83.15 163.75 82.66 C 164.58 82.44 165.41 82.17 166.25 81.96 C 170.90 81.93 174.72 78.41 176.17 74.17 C 177.50 70.21 177.27 65.97 177.31 61.86 C 169.18 62.37 161.15 65.23 155.33 71.09 C 153.26 67.22 151.11 63.39 148.70 59.72 C 145.62 63.31 146.13 68.20 146.27 72.59 C 145.84 71.45 145.42 70.33 144.90 69.23 C 144.09 66.63 142.04 64.88 139.61 63.81 C 139.45 66.68 139.33 69.56 139.10 72.43 C 137.69 70.34 136.31 68.21 135.38 65.86 C 133.99 61.63 133.18 57.22 133.04 52.78 C 136.36 55.80 138.91 59.53 141.69 63.03 C 142.65 58.39 143.91 53.67 146.73 49.76 M 154.96 61.55 C 155.99 58.50 156.43 55.20 155.06 52.18 C 153.20 54.98 151.76 59.10 154.96 61.55 Z" />
<path fill="#312941" opacity="1.00" d=" M 90.29 142.32 C 94.95 146.64 101.52 147.21 106.95 150.15 C 107.46 149.13 107.97 148.12 108.49 147.10 C 110.03 148.89 111.54 150.70 113.19 152.39 C 112.88 153.53 112.57 154.67 112.31 155.82 C 110.81 156.99 109.27 158.14 108.11 159.67 C 109.14 161.06 110.35 162.32 111.53 163.60 C 111.42 164.87 111.24 166.14 111.06 167.41 C 110.00 169.14 108.97 170.90 108.12 172.75 C 106.63 172.27 105.15 171.75 103.67 171.22 C 103.90 169.76 104.13 168.31 104.36 166.85 C 101.23 168.05 98.00 169.01 94.72 169.70 C 94.42 168.16 94.12 166.63 93.82 165.11 C 94.94 164.34 96.07 163.58 97.18 162.81 C 96.34 162.58 94.65 162.13 93.81 161.90 C 94.41 160.41 95.02 158.93 95.63 157.44 C 94.53 157.44 93.43 157.43 92.32 157.42 C 92.30 159.63 92.29 161.83 92.29 164.04 C 91.19 164.41 90.09 164.79 89.00 165.17 C 87.97 163.90 86.94 162.64 85.91 161.39 C 87.42 160.60 88.91 159.78 90.37 158.90 C 88.82 158.48 86.82 158.81 85.80 157.31 C 86.58 156.21 87.43 155.17 88.28 154.13 C 86.56 154.48 84.84 154.82 83.12 155.16 C 83.48 153.02 83.84 150.88 84.20 148.74 C 85.83 149.14 87.46 149.54 89.09 149.95 C 90.16 147.54 90.76 144.96 90.29 142.32 M 91.26 149.29 C 89.22 149.88 90.16 152.37 89.79 153.93 C 91.57 152.68 93.34 151.43 95.11 150.17 C 93.84 149.83 92.58 149.36 91.26 149.29 M 99.00 163.40 C 100.56 162.50 102.04 161.48 103.44 160.36 C 101.94 160.29 100.44 160.24 98.93 160.22 C 99.63 159.09 100.35 157.97 100.93 156.77 C 101.03 155.22 99.17 155.03 98.23 154.27 C 98.20 153.79 98.15 152.81 98.12 152.32 C 100.11 152.43 102.11 152.46 104.11 152.36 C 102.03 150.90 99.88 149.56 97.68 148.30 C 96.26 153.27 97.04 158.68 99.00 163.40 Z" />
<path fill="#312941" opacity="1.00" d=" M 149.55 147.92 C 150.42 146.16 151.09 144.07 153.05 143.21 C 153.19 146.61 153.19 150.01 153.26 153.41 C 155.90 150.30 158.12 146.48 162.30 145.25 C 162.28 145.87 162.25 147.12 162.23 147.74 C 163.12 147.36 164.00 146.99 164.89 146.62 C 165.79 148.17 166.70 149.72 167.61 151.27 C 165.79 152.46 163.89 153.52 161.92 154.45 C 163.33 154.89 164.73 155.34 166.13 155.81 C 165.42 157.62 163.80 158.32 162.05 158.74 C 163.12 159.54 164.19 160.35 165.26 161.17 C 164.10 163.19 162.95 165.20 161.79 167.21 C 159.42 165.98 156.99 164.85 154.49 163.89 C 154.37 165.24 154.26 166.60 154.15 167.97 C 152.50 168.67 150.86 169.46 149.12 169.91 C 147.62 169.07 146.67 167.45 146.35 165.79 C 146.14 164.65 145.98 163.49 145.81 162.34 C 146.06 162.28 146.55 162.15 146.80 162.08 C 148.27 161.74 149.75 161.45 151.20 161.03 C 150.47 156.94 147.93 153.37 144.62 150.94 C 143.27 151.77 142.22 152.97 141.14 154.12 L 143.00 154.02 C 142.66 154.16 141.98 154.44 141.64 154.58 C 141.09 154.31 140.55 154.04 140.01 153.75 C 140.45 151.94 139.43 148.70 142.12 148.50 C 143.62 148.79 145.02 149.43 146.46 149.95 C 146.08 147.57 146.50 145.28 148.97 144.24 C 149.17 145.47 149.36 146.69 149.55 147.92 M 154.71 157.63 C 155.67 157.81 157.58 158.19 158.54 158.37 C 157.09 159.68 155.53 160.86 153.82 161.79 C 155.66 161.89 157.50 162.02 159.33 162.16 C 159.55 159.06 159.50 155.91 158.74 152.89 C 156.64 153.60 155.92 155.98 154.71 157.63 Z" />
<path fill="#312941" opacity="1.00" d=" M 87.35 217.28 C 92.21 212.26 97.80 208.04 102.78 203.15 C 102.46 206.75 103.27 210.82 101.03 213.95 C 96.78 220.24 93.17 226.96 90.09 233.91 C 93.12 235.58 96.32 236.91 99.61 237.98 C 99.07 247.65 99.41 257.34 99.87 267.01 C 99.98 269.97 99.91 273.34 97.53 275.47 C 95.95 277.47 93.32 277.81 91.02 278.40 C 91.34 280.28 91.70 282.15 92.08 284.02 C 91.98 285.36 91.91 286.71 91.90 288.06 C 93.88 289.25 96.00 290.21 97.81 291.67 C 96.98 293.28 96.15 294.89 95.34 296.52 C 89.26 297.81 83.03 297.55 76.86 297.53 C 79.33 298.31 81.84 298.96 84.37 299.58 C 79.28 301.99 74.11 304.29 69.41 307.41 C 65.16 310.10 61.45 313.52 57.32 316.38 C 48.60 308.73 37.38 304.77 26.10 302.80 C 27.15 293.19 24.05 283.81 21.39 274.72 C 27.68 275.08 32.99 279.17 35.53 284.83 C 33.65 284.72 31.39 283.32 29.78 284.83 C 27.27 286.32 27.02 290.86 30.01 291.92 C 32.44 292.58 34.58 290.85 36.88 290.37 C 40.24 290.90 43.40 292.31 46.60 293.46 C 50.25 294.78 53.21 297.56 56.92 298.73 C 63.08 297.06 68.77 293.98 74.98 292.42 C 74.91 290.01 74.80 287.62 74.65 285.22 C 74.30 284.90 73.60 284.27 73.25 283.95 C 73.29 286.06 73.32 288.16 73.37 290.28 C 67.62 292.19 62.14 295.16 56.31 296.61 C 50.37 293.60 44.94 289.47 38.37 287.73 C 38.88 276.29 36.97 264.47 30.96 254.55 C 38.52 254.97 45.86 258.48 50.77 264.27 C 54.31 268.62 54.80 274.40 54.93 279.79 C 56.35 279.78 57.77 279.78 59.20 279.78 C 59.29 269.74 59.48 259.21 63.95 249.99 C 69.85 237.85 78.41 227.28 87.35 217.28 M 39.99 263.89 C 39.85 266.31 38.71 270.31 42.11 270.94 C 45.17 271.98 47.92 268.38 46.45 265.63 C 45.59 262.78 42.21 263.35 39.99 263.89 M 74.06 269.87 C 76.68 273.68 78.60 277.89 78.38 282.63 C 82.60 278.35 79.55 271.16 74.06 269.87 Z" />
</g>
<g id="#443961ff">
<path fill="#443961" opacity="1.00" d=" M 154.96 61.55 C 151.76 59.10 153.20 54.98 155.06 52.18 C 156.43 55.20 155.99 58.50 154.96 61.55 Z" />
</g>
<g id="#09070cff">
<path fill="#09070c" opacity="1.00" d=" M 146.27 72.59 C 146.13 68.20 145.62 63.31 148.70 59.72 C 151.11 63.39 153.26 67.22 155.33 71.09 C 161.15 65.23 169.18 62.37 177.31 61.86 C 177.27 65.97 177.50 70.21 176.17 74.17 C 174.72 78.41 170.90 81.93 166.25 81.96 C 168.39 80.21 170.70 78.45 172.01 75.95 C 173.92 72.44 174.04 68.35 174.49 64.47 C 167.01 65.80 159.77 69.15 155.10 75.33 C 153.13 71.92 151.12 68.54 148.76 65.38 C 148.38 69.68 148.15 75.12 152.32 77.73 C 157.79 81.49 162.97 85.68 167.21 90.82 C 170.28 90.85 173.36 90.87 176.43 90.90 C 176.05 91.19 175.28 91.77 174.89 92.06 C 172.68 92.26 170.47 92.30 168.25 92.31 C 169.19 93.53 170.13 94.75 171.08 95.96 C 170.68 96.30 169.88 96.97 169.48 97.31 C 165.26 91.69 160.95 85.89 154.97 82.02 C 148.25 76.96 140.02 74.51 131.87 72.94 C 131.89 71.34 131.92 69.75 131.95 68.16 C 133.09 67.39 134.23 66.62 135.38 65.86 C 136.31 68.21 137.69 70.34 139.10 72.43 C 139.33 69.56 139.45 66.68 139.61 63.81 C 142.04 64.88 144.09 66.63 144.90 69.23 C 143.41 68.56 141.89 67.91 140.37 67.30 C 141.01 69.04 141.42 70.92 142.46 72.50 C 143.78 73.16 145.19 73.61 146.58 74.10 L 146.27 72.59 Z" />
<path fill="#09070c" opacity="1.00" d=" M 113.61 278.86 C 113.94 278.60 114.59 278.08 114.92 277.82 C 116.23 279.30 117.53 280.81 119.05 282.09 C 118.68 283.15 118.32 284.22 117.95 285.29 C 116.57 283.10 115.12 280.96 113.61 278.86 Z" />
</g>
<g id="#43385fff">
<path fill="#43385f" opacity="1.00" d=" M 155.10 75.33 C 159.77 69.15 167.01 65.80 174.49 64.47 C 174.04 68.35 173.92 72.44 172.01 75.95 C 170.70 78.45 168.39 80.21 166.25 81.96 C 165.41 82.17 164.58 82.44 163.75 82.66 C 167.53 83.15 171.86 82.53 175.10 84.91 C 177.03 86.31 176.64 88.85 176.43 90.90 C 173.36 90.87 170.28 90.85 167.21 90.82 C 162.97 85.68 157.79 81.49 152.32 77.73 C 148.15 75.12 148.38 69.68 148.76 65.38 C 151.12 68.54 153.13 71.92 155.10 75.33 Z" />
</g>
<g id="#3e3457ff">
<path fill="#3e3457" opacity="1.00" d=" M 140.37 67.30 C 141.89 67.91 143.41 68.56 144.90 69.23 C 145.42 70.33 145.84 71.45 146.27 72.59 L 146.58 74.10 C 145.19 73.61 143.78 73.16 142.46 72.50 C 141.42 70.92 141.01 69.04 140.37 67.30 Z" />
</g>
<g id="#ffffffff">
<path fill="#ffffff" opacity="1.00" d=" M 114.85 74.09 C 120.37 72.57 126.20 71.90 131.87 72.94 C 140.02 74.51 148.25 76.96 154.97 82.02 C 160.95 85.89 165.26 91.69 169.48 97.31 C 172.93 104.02 175.36 111.39 175.82 118.97 C 172.30 114.52 172.25 108.40 169.14 103.67 C 169.81 106.17 170.87 108.64 170.77 111.28 C 170.19 117.61 170.36 124.02 169.07 130.27 C 167.86 128.56 166.66 126.84 165.43 125.15 C 165.17 127.79 164.97 130.43 164.86 133.09 C 164.06 130.95 162.99 128.92 161.43 127.25 C 161.28 128.92 161.15 130.60 161.05 132.28 C 159.52 138.30 158.43 144.71 154.40 149.69 C 155.14 143.53 155.55 137.34 155.14 131.13 C 155.04 128.73 154.73 126.33 154.91 123.92 C 155.55 121.79 157.27 120.20 158.38 118.31 C 158.44 119.05 158.55 120.53 158.61 121.27 C 159.19 121.08 160.35 120.71 160.93 120.52 C 163.85 120.99 166.38 119.51 168.92 118.34 C 168.53 116.11 168.09 113.89 167.57 111.69 C 167.48 114.02 167.42 116.35 167.35 118.68 C 166.44 117.75 165.53 116.84 164.64 115.90 C 164.41 116.61 163.95 118.01 163.72 118.71 C 161.58 120.68 161.19 116.82 160.50 115.43 C 161.89 109.74 161.66 103.32 157.43 98.85 C 158.49 102.53 159.63 106.21 160.08 110.04 C 158.71 107.98 157.37 105.90 155.86 103.94 C 156.08 106.80 156.26 109.67 156.38 112.55 C 154.77 112.54 153.17 112.52 151.57 112.50 C 150.03 112.44 148.49 112.40 146.95 112.38 C 146.52 109.16 145.95 105.92 144.16 103.14 C 143.98 103.72 143.62 104.89 143.44 105.47 C 142.27 106.63 141.16 107.84 140.09 109.09 C 141.77 109.94 143.45 110.77 145.13 111.63 C 140.84 113.51 136.05 112.41 131.52 112.54 C 131.09 108.40 131.02 104.19 129.76 100.19 C 129.17 102.55 129.37 104.98 129.56 107.37 C 127.67 106.20 123.61 103.52 122.57 107.00 C 123.83 110.16 127.02 111.28 130.15 110.34 C 129.95 110.85 129.54 111.86 129.34 112.37 C 124.20 112.66 119.02 112.54 113.95 111.66 C 114.07 108.36 114.54 105.10 115.23 101.88 C 112.58 104.49 110.43 107.53 108.52 110.70 C 107.26 106.53 107.26 102.14 108.37 97.94 C 106.40 102.61 104.53 108.19 107.41 112.92 C 108.81 112.84 110.03 112.10 111.28 111.53 C 110.65 112.24 110.03 112.95 109.42 113.67 C 107.98 113.45 106.54 113.22 105.10 113.02 C 106.86 116.26 109.62 118.85 110.95 122.34 C 110.07 126.69 109.53 131.09 108.99 135.50 C 105.49 129.97 104.71 123.41 102.82 117.28 C 102.08 124.04 102.24 130.84 101.88 137.62 C 100.01 135.41 98.50 132.90 97.55 130.17 C 97.47 129.07 97.39 127.98 97.31 126.88 C 96.74 129.77 96.24 132.67 95.81 135.58 C 92.40 131.59 91.36 126.40 90.19 121.45 C 89.88 122.61 89.55 123.77 89.36 124.95 C 89.24 126.09 88.99 128.35 88.86 129.48 C 88.21 128.61 87.57 127.75 86.92 126.88 C 86.68 128.67 86.43 130.47 86.26 132.27 C 86.49 121.67 85.67 110.83 88.67 100.52 C 89.93 95.72 91.39 90.85 94.36 86.78 C 95.71 88.77 97.04 90.77 98.35 92.79 C 98.64 94.54 98.96 96.28 99.29 98.02 C 99.63 97.42 100.30 96.22 100.64 95.62 C 103.32 91.65 105.26 87.13 108.75 83.77 C 111.70 80.96 114.78 78.20 118.43 76.33 C 117.18 75.67 115.97 74.96 114.85 74.09 M 92.38 104.08 C 93.17 104.17 94.75 104.37 95.54 104.46 C 95.95 104.99 96.75 106.04 97.15 106.57 C 99.87 105.65 101.34 103.28 101.50 100.47 C 100.18 101.87 98.93 103.33 97.71 104.82 C 97.44 103.53 97.16 102.24 96.89 100.96 C 95.80 101.58 94.72 102.20 93.63 102.82 C 94.63 100.91 95.65 99.01 96.62 97.10 C 93.47 97.87 92.63 101.26 92.38 104.08 M 97.99 118.01 C 98.53 117.76 99.62 117.28 100.16 117.04 C 100.11 114.84 100.04 112.63 99.89 110.43 C 97.59 112.30 98.17 115.40 97.99 118.01 M 96.15 121.71 C 97.80 119.57 97.05 116.76 96.98 114.30 C 94.57 115.61 93.50 120.69 96.15 121.71 Z" />
</g>
<g id="#acabbfff">
<path fill="#acabbf" opacity="1.00" d=" M 94.36 86.78 C 94.82 86.14 95.74 84.87 96.19 84.23 C 98.00 86.13 99.71 88.12 101.41 90.11 C 101.05 91.93 100.81 93.77 100.64 95.62 C 100.30 96.22 99.63 97.42 99.29 98.02 C 98.96 96.28 98.64 94.54 98.35 92.79 C 97.04 90.77 95.71 88.77 94.36 86.78 Z" />
</g>
<g id="#42375dff">
<path fill="#42375d" opacity="1.00" d=" M 168.25 92.31 C 170.82 92.65 173.39 93.05 175.84 93.91 C 174.60 95.04 173.36 96.17 172.13 97.30 L 171.08 95.96 C 170.13 94.75 169.19 93.53 168.25 92.31 Z" />
</g>
<g id="#cccbdeff">
<path fill="#cccbde" opacity="1.00" d=" M 92.38 104.08 C 92.63 101.26 93.47 97.87 96.62 97.10 C 95.65 99.01 94.63 100.91 93.63 102.82 C 94.72 102.20 95.80 101.58 96.89 100.96 C 97.16 102.24 97.44 103.53 97.71 104.82 C 98.93 103.33 100.18 101.87 101.50 100.47 C 101.34 103.28 99.87 105.65 97.15 106.57 C 96.75 106.04 95.95 104.99 95.54 104.46 C 94.75 104.37 93.17 104.17 92.38 104.08 Z" />
</g>
<g id="#101518ff">
<path fill="#101518" opacity="1.00" d=" M 107.41 112.92 C 104.53 108.19 106.40 102.61 108.37 97.94 C 107.26 102.14 107.26 106.53 108.52 110.70 C 110.43 107.53 112.58 104.49 115.23 101.88 C 114.54 105.10 114.07 108.36 113.95 111.66 C 119.02 112.54 124.20 112.66 129.34 112.37 C 129.54 111.86 129.95 110.85 130.15 110.34 C 127.02 111.28 123.83 110.16 122.57 107.00 C 123.61 103.52 127.67 106.20 129.56 107.37 C 129.37 104.98 129.17 102.55 129.76 100.19 C 131.02 104.19 131.09 108.40 131.52 112.54 C 136.05 112.41 140.84 113.51 145.13 111.63 C 143.45 110.77 141.77 109.94 140.09 109.09 C 141.16 107.84 142.27 106.63 143.44 105.47 C 143.62 104.89 143.98 103.72 144.16 103.14 C 145.95 105.92 146.52 109.16 146.95 112.38 C 144.83 113.06 142.76 113.91 140.63 114.57 C 136.93 114.84 133.22 114.56 129.53 114.26 L 129.79 115.60 C 127.36 111.87 118.87 112.56 119.33 117.95 C 118.45 122.34 121.39 125.78 125.10 127.57 C 121.56 127.88 118.02 127.51 114.52 127.09 C 114.95 129.16 114.08 132.20 116.28 133.44 C 119.18 133.91 122.14 133.72 125.07 133.93 C 124.82 134.54 124.32 135.77 124.07 136.38 C 121.13 136.36 118.21 136.05 115.32 135.60 C 115.26 136.57 115.20 137.54 115.14 138.51 C 114.70 140.39 114.20 142.26 113.80 144.15 C 112.94 139.84 112.41 135.45 112.39 131.05 C 112.32 128.10 112.55 124.97 110.95 122.34 C 109.62 118.85 106.86 116.26 105.10 113.02 C 106.54 113.22 107.98 113.45 109.42 113.67 C 110.03 112.95 110.65 112.24 111.28 111.53 C 110.03 112.10 108.81 112.84 107.41 112.92 Z" />
</g>
<g id="#c9c8d9ff">
<path fill="#c9c8d9" opacity="1.00" d=" M 97.99 118.01 C 98.17 115.40 97.59 112.30 99.89 110.43 C 100.04 112.63 100.11 114.84 100.16 117.04 C 99.62 117.28 98.53 117.76 97.99 118.01 Z" />
</g>
<g id="#0d4039ff">
<path fill="#0d4039" opacity="1.00" d=" M 140.63 114.57 C 142.76 113.91 144.83 113.06 146.95 112.38 C 148.49 112.40 150.03 112.44 151.57 112.50 C 152.71 113.19 153.84 113.90 154.98 114.61 C 155.38 115.18 155.77 115.78 156.22 116.32 C 156.80 116.51 157.95 116.91 158.53 117.11 L 158.38 118.31 C 157.27 120.20 155.55 121.79 154.91 123.92 C 154.73 126.33 155.04 128.73 155.14 131.13 L 153.34 130.37 C 153.16 129.03 152.99 127.69 152.82 126.35 C 150.63 126.80 148.42 127.19 146.28 127.86 C 145.81 128.11 144.87 128.62 144.40 128.87 C 143.16 126.13 141.92 123.39 140.85 120.58 C 140.70 118.58 140.67 116.57 140.63 114.57 M 147.11 115.35 C 146.60 118.37 145.18 124.84 149.82 124.91 C 151.75 122.15 151.49 118.57 150.57 115.49 C 149.42 115.44 148.26 115.40 147.11 115.35 M 155.37 119.24 C 155.82 119.76 155.82 119.76 155.37 119.24 Z" />
</g>
<g id="#b1b0c6ff">
<path fill="#b1b0c6" opacity="1.00" d=" M 158.80 112.05 C 159.34 113.19 159.90 114.31 160.50 115.43 C 161.19 116.82 161.58 120.68 163.72 118.71 C 163.95 118.01 164.41 116.61 164.64 115.90 C 165.53 116.84 166.44 117.75 167.35 118.68 C 167.42 116.35 167.48 114.02 167.57 111.69 C 168.09 113.89 168.53 116.11 168.92 118.34 C 166.38 119.51 163.85 120.99 160.93 120.52 C 160.35 120.71 159.19 121.08 158.61 121.27 C 158.55 120.53 158.44 119.05 158.38 118.31 L 158.53 117.11 C 159.27 115.36 156.98 115.14 156.22 116.32 C 155.77 115.78 155.38 115.18 154.98 114.61 C 157.00 114.84 158.27 113.99 158.80 112.05 Z" />
</g>
<g id="#b1aeccff">
<path fill="#b1aecc" opacity="1.00" d=" M 169.07 130.27 C 170.36 124.02 170.19 117.61 170.77 111.28 C 171.97 116.14 171.18 121.15 170.79 126.05 C 170.10 130.68 169.98 135.58 167.57 139.73 C 167.11 137.04 167.72 133.99 165.86 131.72 C 165.56 134.31 165.67 136.94 165.24 139.52 C 164.63 142.32 161.53 143.43 159.44 144.88 C 160.66 140.82 161.99 136.56 161.05 132.28 C 161.15 130.60 161.28 128.92 161.43 127.25 C 162.99 128.92 164.06 130.95 164.86 133.09 C 164.97 130.43 165.17 127.79 165.43 125.15 C 166.66 126.84 167.86 128.56 169.07 130.27 Z" />
<path fill="#b1aecc" opacity="1.00" d=" M 86.92 126.88 C 87.57 127.75 88.21 128.61 88.86 129.48 C 88.56 132.22 88.60 134.97 88.64 137.72 C 86.75 136.51 85.89 134.48 86.26 132.27 C 86.43 130.47 86.68 128.67 86.92 126.88 Z" />
</g>
<g id="#083e34ff">
<path fill="#083e34" opacity="1.00" d=" M 119.33 117.95 C 118.87 112.56 127.36 111.87 129.79 115.60 C 130.27 117.70 130.33 119.86 130.17 122.00 C 129.55 124.64 127.53 126.53 125.10 127.57 C 121.39 125.78 118.45 122.34 119.33 117.95 M 123.63 124.55 C 125.09 124.48 127.32 125.01 127.54 122.94 C 127.95 120.14 128.38 115.70 125.00 114.59 C 121.91 116.85 123.50 121.32 123.63 124.55 Z" />
</g>
<g id="#cecde0ff">
<path fill="#cecde0" opacity="1.00" d=" M 96.15 121.71 C 93.50 120.69 94.57 115.61 96.98 114.30 C 97.05 116.76 97.80 119.57 96.15 121.71 Z" />
</g>
<g id="#23fbe6ff">
<path fill="#23fbe6" opacity="1.00" d=" M 123.63 124.55 C 123.50 121.32 121.91 116.85 125.00 114.59 C 128.38 115.70 127.95 120.14 127.54 122.94 C 127.32 125.01 125.09 124.48 123.63 124.55 Z" />
</g>
<g id="#798281ff">
<path fill="#798281" opacity="1.00" d=" M 129.53 114.26 C 133.22 114.56 136.93 114.84 140.63 114.57 C 140.67 116.57 140.70 118.58 140.85 120.58 C 137.81 119.04 134.32 119.49 131.04 119.49 C 130.82 120.11 130.38 121.37 130.17 122.00 C 130.33 119.86 130.27 117.70 129.79 115.60 L 129.53 114.26 Z" />
</g>
<g id="#22f6e1ff">
<path fill="#22f6e1" opacity="1.00" d=" M 147.11 115.35 C 148.26 115.40 149.42 115.44 150.57 115.49 C 151.49 118.57 151.75 122.15 149.82 124.91 C 145.18 124.84 146.60 118.37 147.11 115.35 Z" />
</g>
<g id="#050f0fff">
<path fill="#050f0f" opacity="1.00" d=" M 156.22 116.32 C 156.98 115.14 159.27 115.36 158.53 117.11 C 157.95 116.91 156.80 116.51 156.22 116.32 Z" />
</g>
<g id="#aca9c7ff">
<path fill="#aca9c7" opacity="1.00" d=" M 102.82 117.28 C 104.71 123.41 105.49 129.97 108.99 135.50 C 109.53 131.09 110.07 126.69 110.95 122.34 C 112.55 124.97 112.32 128.10 112.39 131.05 C 112.41 135.45 112.94 139.84 113.80 144.15 C 114.29 146.84 114.91 149.51 115.41 152.20 C 108.69 145.54 105.43 136.41 103.34 127.39 C 102.59 133.98 103.44 140.60 104.61 147.09 C 102.23 145.92 99.90 144.68 97.64 143.32 C 97.39 138.93 97.47 134.55 97.55 130.17 C 98.50 132.90 100.01 135.41 101.88 137.62 C 102.24 130.84 102.08 124.04 102.82 117.28 Z" />
</g>
<g id="#4f6d6cff">
<path fill="#4f6d6c" opacity="1.00" d=" M 155.37 119.24 C 155.82 119.76 155.82 119.76 155.37 119.24 Z" />
</g>
<g id="#adb1aeff">
<path fill="#adb1ae" opacity="1.00" d=" M 131.04 119.49 C 134.32 119.49 137.81 119.04 140.85 120.58 C 141.92 123.39 143.16 126.13 144.40 128.87 C 146.21 130.57 148.50 131.57 150.74 132.58 C 150.72 132.93 150.69 133.63 150.67 133.98 C 150.22 134.19 149.32 134.61 148.87 134.82 C 146.93 135.28 144.91 135.17 142.93 135.21 C 141.40 132.74 138.41 130.96 135.92 133.41 C 135.70 133.47 135.26 133.60 135.03 133.66 C 133.25 131.16 129.79 132.09 128.09 134.15 C 127.34 134.10 125.82 133.99 125.07 133.93 C 122.14 133.72 119.18 133.91 116.28 133.44 C 114.08 132.20 114.95 129.16 114.52 127.09 C 118.02 127.51 121.56 127.88 125.10 127.57 C 127.53 126.53 129.55 124.64 130.17 122.00 C 130.38 121.37 130.82 120.11 131.04 119.49 M 132.94 130.58 C 134.97 130.60 137.01 130.62 139.05 130.65 C 138.71 127.88 137.84 125.22 136.01 123.07 C 134.49 125.34 133.48 127.90 132.94 130.58 Z" />
</g>
<g id="#afaccbff">
<path fill="#afaccb" opacity="1.00" d=" M 89.36 124.95 C 89.55 123.77 89.88 122.61 90.19 121.45 C 91.36 126.40 92.40 131.59 95.81 135.58 C 95.57 138.25 95.60 140.94 95.57 143.62 C 94.51 142.54 93.45 141.47 92.45 140.34 C 89.21 135.97 89.88 130.10 89.36 124.95 Z" />
</g>
<g id="#161b1fff">
<path fill="#161b1f" opacity="1.00" d=" M 132.94 130.58 C 133.48 127.90 134.49 125.34 136.01 123.07 C 137.84 125.22 138.71 127.88 139.05 130.65 C 137.01 130.62 134.97 130.60 132.94 130.58 Z" />
</g>
<g id="#788f8eff">
<path fill="#788f8e" opacity="1.00" d=" M 146.28 127.86 C 148.42 127.19 150.63 126.80 152.82 126.35 C 152.99 127.69 153.16 129.03 153.34 130.37 C 153.50 131.83 153.63 133.28 153.75 134.74 C 152.12 134.77 150.49 134.80 148.87 134.82 C 149.32 134.61 150.22 134.19 150.67 133.98 C 150.69 133.63 150.72 132.93 150.74 132.58 C 150.76 131.00 150.78 129.43 150.78 127.85 C 149.28 127.83 147.78 127.81 146.28 127.86 Z" />
</g>
<g id="#0a0b0dff">
<path fill="#0a0b0d" opacity="1.00" d=" M 97.31 126.88 C 97.39 127.98 97.47 129.07 97.55 130.17 C 97.47 134.55 97.39 138.93 97.64 143.32 C 99.90 144.68 102.23 145.92 104.61 147.09 C 103.44 140.60 102.59 133.98 103.34 127.39 C 105.43 136.41 108.69 145.54 115.41 152.20 C 114.91 149.51 114.29 146.84 113.80 144.15 C 114.20 142.26 114.70 140.39 115.14 138.51 C 115.21 139.25 115.35 140.74 115.43 141.49 C 118.13 143.15 120.85 144.79 123.60 146.38 C 123.03 146.53 121.90 146.83 121.34 146.99 C 120.76 146.78 119.62 146.38 119.05 146.17 C 120.33 147.77 121.62 149.36 122.90 150.96 C 125.07 152.19 127.18 153.51 129.32 154.78 C 128.50 155.61 127.69 156.45 126.87 157.28 C 126.72 157.43 126.42 157.74 126.27 157.89 C 127.50 159.18 128.78 160.44 130.06 161.68 C 128.75 164.21 129.71 166.89 131.44 168.93 L 131.94 169.66 C 130.79 169.97 129.64 170.28 128.50 170.60 C 128.41 171.03 128.22 171.88 128.13 172.31 C 128.57 172.31 129.44 172.33 129.88 172.34 C 129.89 172.97 129.91 174.22 129.93 174.85 C 129.62 175.22 128.99 175.94 128.68 176.31 C 128.23 175.74 127.32 174.60 126.87 174.03 C 126.55 173.63 125.90 172.83 125.58 172.43 C 124.44 173.88 123.31 175.33 122.17 176.77 C 118.28 175.19 114.61 173.10 111.39 170.39 C 110.65 171.75 109.90 173.11 109.10 174.44 C 108.86 174.02 108.37 173.17 108.12 172.75 C 108.97 170.90 110.00 169.14 111.06 167.41 C 112.10 168.38 113.14 169.35 114.18 170.31 C 115.17 169.59 116.17 168.86 117.16 168.14 C 117.67 168.21 118.70 168.34 119.21 168.41 C 119.12 169.82 119.05 171.23 119.02 172.64 C 120.19 173.25 121.42 173.75 122.64 174.27 C 123.47 172.09 124.30 169.90 125.13 167.71 C 124.07 167.48 123.01 167.25 121.95 167.02 C 121.55 165.32 121.15 163.62 120.72 161.93 C 122.40 162.87 124.10 163.93 126.08 164.07 C 125.65 162.23 124.48 160.74 123.38 159.26 C 123.69 157.15 124.05 155.06 124.41 152.96 C 123.36 153.69 122.32 154.43 121.27 155.16 C 120.95 153.71 120.63 152.27 120.31 150.83 C 119.61 150.54 118.20 149.95 117.50 149.65 C 117.80 151.77 118.11 153.89 118.42 156.01 C 116.65 154.84 114.87 153.69 113.19 152.39 C 111.54 150.70 110.03 148.89 108.49 147.10 C 107.97 148.12 107.46 149.13 106.95 150.15 C 101.52 147.21 94.95 146.64 90.29 142.32 C 91.01 141.66 91.73 141.00 92.45 140.34 C 93.45 141.47 94.51 142.54 95.57 143.62 C 95.60 140.94 95.57 138.25 95.81 135.58 C 96.24 132.67 96.74 129.77 97.31 126.88 Z" />
<path fill="#0a0b0d" opacity="1.00" d=" M 149.78 278.79 C 149.97 279.01 150.36 279.44 150.56 279.66 C 150.91 280.10 151.62 280.98 151.98 281.42 C 151.20 281.84 149.65 282.70 148.87 283.13 C 149.78 283.32 151.59 283.72 152.49 283.91 C 150.92 284.24 149.33 283.89 147.79 283.58 C 148.44 282.71 149.10 281.85 149.75 281.00 C 149.76 280.45 149.77 279.34 149.78 278.79 Z" />
</g>
<g id="#97bcb9ff">
<path fill="#97bcb9" opacity="1.00" d=" M 144.40 128.87 C 144.87 128.62 145.81 128.11 146.28 127.86 C 147.78 127.81 149.28 127.83 150.78 127.85 C 150.78 129.43 150.76 131.00 150.74 132.58 C 148.50 131.57 146.21 130.57 144.40 128.87 Z" />
</g>
<g id="#b7b4b1ff">
<path fill="#b7b4b1" opacity="1.00" d=" M 129.14 134.98 C 129.90 134.60 131.42 133.84 132.19 133.47 C 133.39 135.32 135.94 138.58 133.44 140.33 C 131.51 138.99 130.11 137.08 129.14 134.98 Z" />
<path fill="#b7b4b1" opacity="1.00" d=" M 137.56 134.63 C 138.22 133.70 140.67 134.08 140.47 135.45 C 140.69 138.12 138.85 140.39 136.96 142.05 C 136.92 139.69 135.15 136.32 137.56 134.63 Z" />
</g>
<g id="#f9dcbeff">
<path fill="#f9dcbe" opacity="1.00" d=" M 115.14 138.51 C 115.20 137.54 115.26 136.57 115.32 135.60 C 118.21 136.05 121.13 136.36 124.07 136.38 C 125.50 136.43 126.95 136.41 128.38 136.62 C 129.64 137.78 130.60 139.22 131.71 140.52 C 130.25 140.84 128.81 141.21 127.37 141.62 C 130.97 141.86 134.76 141.59 138.02 143.43 C 139.60 141.59 141.03 139.64 142.37 137.62 C 142.92 138.38 143.49 139.14 144.06 139.89 C 145.09 139.89 146.12 139.89 147.14 139.89 C 147.90 138.25 149.22 137.65 150.94 138.25 C 147.72 143.28 142.71 147.09 137.05 148.95 C 132.44 150.48 127.70 148.40 123.60 146.38 C 120.85 144.79 118.13 143.15 115.43 141.49 C 115.35 140.74 115.21 139.25 115.14 138.51 Z" />
</g>
<g id="#d38b8bff">
<path fill="#d38b8b" opacity="1.00" d=" M 142.62 136.58 C 145.72 136.29 148.85 136.44 151.96 136.33 C 151.62 136.97 151.28 137.61 150.94 138.25 C 149.22 137.65 147.90 138.25 147.14 139.89 C 146.12 139.89 145.09 139.89 144.06 139.89 C 143.49 139.14 142.92 138.38 142.37 137.62 C 142.43 137.36 142.56 136.84 142.62 136.58 Z" />
</g>
<g id="#ca8385ff">
<path fill="#ca8385" opacity="1.00" d=" M 119.05 146.17 C 119.62 146.38 120.76 146.78 121.34 146.99 C 124.68 148.62 128.18 149.91 131.80 150.78 C 131.81 152.19 131.83 153.59 131.85 155.00 C 133.55 155.49 135.47 155.82 136.13 157.74 C 133.16 157.07 130.16 156.82 127.21 157.70 L 126.87 157.28 C 127.69 156.45 128.50 155.61 129.32 154.78 C 127.18 153.51 125.07 152.19 122.90 150.96 C 121.62 149.36 120.33 147.77 119.05 146.17 Z" />
</g>
<g id="#1c1725ff">
<path fill="#1c1725" opacity="1.00" d=" M 91.26 149.29 C 92.58 149.36 93.84 149.83 95.11 150.17 C 93.34 151.43 91.57 152.68 89.79 153.93 C 90.16 152.37 89.22 149.88 91.26 149.29 Z" />
</g>
<g id="#0a090dff">
<path fill="#0a090d" opacity="1.00" d=" M 99.00 163.40 C 97.04 158.68 96.26 153.27 97.68 148.30 C 99.88 149.56 102.03 150.90 104.11 152.36 C 102.11 152.46 100.11 152.43 98.12 152.32 C 98.15 152.81 98.20 153.79 98.23 154.27 C 99.17 155.03 101.03 155.22 100.93 156.77 C 100.35 157.97 99.63 159.09 98.93 160.22 C 100.44 160.24 101.94 160.29 103.44 160.36 C 102.04 161.48 100.56 162.50 99.00 163.40 Z" />
</g>
<g id="#433860ff">
<path fill="#433860" opacity="1.00" d=" M 117.50 149.65 C 118.20 149.95 119.61 150.54 120.31 150.83 C 120.63 152.27 120.95 153.71 121.27 155.16 C 122.32 154.43 123.36 153.69 124.41 152.96 C 124.05 155.06 123.69 157.15 123.38 159.26 C 124.48 160.74 125.65 162.23 126.08 164.07 C 124.10 163.93 122.40 162.87 120.72 161.93 C 121.15 163.62 121.55 165.32 121.95 167.02 C 123.01 167.25 124.07 167.48 125.13 167.71 C 124.30 169.90 123.47 172.09 122.64 174.27 C 121.42 173.75 120.19 173.25 119.02 172.64 C 119.05 171.23 119.12 169.82 119.21 168.41 C 118.70 168.34 117.67 168.21 117.16 168.14 C 116.17 168.86 115.17 169.59 114.18 170.31 C 113.14 169.35 112.10 168.38 111.06 167.41 C 111.24 166.14 111.42 164.87 111.53 163.60 L 111.49 162.37 C 111.18 161.31 110.84 160.27 110.50 159.23 C 111.25 158.86 112.01 158.48 112.76 158.11 C 112.65 157.54 112.42 156.39 112.31 155.82 C 112.57 154.67 112.88 153.53 113.19 152.39 C 114.87 153.69 116.65 154.84 118.42 156.01 C 118.11 153.89 117.80 151.77 117.50 149.65 Z" />
<path fill="#433860" opacity="1.00" d=" M 137.30 152.23 C 137.98 152.61 139.34 153.37 140.01 153.75 C 140.55 154.04 141.09 154.31 141.64 154.58 C 141.98 154.44 142.66 154.16 143.00 154.02 C 143.58 153.78 144.74 153.29 145.33 153.04 C 145.22 154.22 145.11 155.41 145.01 156.60 C 146.95 157.24 148.86 158.18 149.28 160.41 C 148.66 160.83 147.42 161.67 146.80 162.08 C 146.55 162.15 146.06 162.28 145.81 162.34 C 145.98 163.49 146.14 164.65 146.35 165.79 C 144.67 166.31 143.54 167.57 142.71 169.06 C 140.54 169.06 138.59 168.40 137.55 166.39 C 138.39 166.18 140.07 165.77 140.91 165.57 C 140.93 164.37 140.95 163.17 140.98 161.97 C 140.44 162.41 139.38 163.28 138.85 163.72 C 138.43 163.02 137.59 161.64 137.17 160.95 C 137.73 160.51 138.85 159.62 139.41 159.17 C 138.32 156.99 137.38 154.70 137.30 152.23 Z" />
</g>
<g id="#14111cff">
<path fill="#14111c" opacity="1.00" d=" M 141.14 154.12 C 142.22 152.97 143.27 151.77 144.62 150.94 C 147.93 153.37 150.47 156.94 151.20 161.03 C 149.75 161.45 148.27 161.74 146.80 162.08 C 147.42 161.67 148.66 160.83 149.28 160.41 C 148.86 158.18 146.95 157.24 145.01 156.60 C 145.11 155.41 145.22 154.22 145.33 153.04 C 144.74 153.29 143.58 153.78 143.00 154.02 L 141.14 154.12 Z" />
</g>
<g id="#120f17ff">
<path fill="#120f17" opacity="1.00" d=" M 154.71 157.63 C 155.92 155.98 156.64 153.60 158.74 152.89 C 159.50 155.91 159.55 159.06 159.33 162.16 C 157.50 162.02 155.66 161.89 153.82 161.79 C 155.53 160.86 157.09 159.68 158.54 158.37 C 157.58 158.19 155.67 157.81 154.71 157.63 Z" />
</g>
<g id="#15121dff">
<path fill="#15121d" opacity="1.00" d=" M 108.11 159.67 C 109.27 158.14 110.81 156.99 112.31 155.82 C 112.42 156.39 112.65 157.54 112.76 158.11 C 112.01 158.48 111.25 158.86 110.50 159.23 C 110.84 160.27 111.18 161.31 111.49 162.37 L 111.53 163.60 C 110.35 162.32 109.14 161.06 108.11 159.67 Z" />
</g>
<g id="#37b8beff">
<path fill="#37b8be" opacity="1.00" d=" M 130.06 161.68 L 130.65 160.07 C 134.73 161.04 136.26 168.27 131.44 168.93 C 129.71 166.89 128.75 164.21 130.06 161.68 Z" />
</g>
<g id="#830e26ff">
<path fill="#830e26" opacity="1.00" d=" M 144.69 171.27 C 144.98 170.67 145.56 169.46 145.85 168.86 C 146.99 170.04 148.01 171.35 149.23 172.45 C 150.69 172.24 152.06 171.67 153.45 171.21 C 154.12 173.11 154.80 175.01 155.45 176.92 C 152.64 178.66 149.42 179.33 146.14 179.19 C 146.01 182.31 145.86 185.43 145.67 188.55 C 142.81 184.15 140.99 179.19 138.22 174.74 C 139.32 173.65 140.41 172.55 141.50 171.45 C 142.56 171.39 143.63 171.33 144.69 171.27 Z" />
<path fill="#830e26" opacity="1.00" d=" M 111.39 170.39 C 114.61 173.10 118.28 175.19 122.17 176.77 C 123.31 175.33 124.44 173.88 125.58 172.43 C 125.90 172.83 126.55 173.63 126.87 174.03 C 125.60 176.15 124.27 178.24 122.81 180.24 C 120.50 180.84 118.25 181.64 116.03 182.51 C 112.28 179.43 107.42 180.40 102.96 180.08 C 100.32 178.61 97.89 176.73 95.02 175.70 C 95.57 174.38 96.13 173.07 96.70 171.75 C 98.04 171.34 99.39 170.93 100.73 170.51 C 100.91 171.24 101.26 172.70 101.44 173.43 C 103.86 173.75 106.96 175.51 109.10 174.44 C 109.90 173.11 110.65 171.75 111.39 170.39 Z" />
<path fill="#830e26" opacity="1.00" d=" M 97.96 194.97 C 97.73 191.02 101.47 188.29 105.03 187.76 C 104.95 191.41 102.16 196.17 97.96 194.97 Z" />
</g>
<g id="#373256ff">
<path fill="#373256" opacity="1.00" d=" M 129.85 171.30 C 131.16 171.46 132.46 171.62 133.77 171.79 C 136.67 178.39 141.06 184.18 144.23 190.64 C 145.05 192.10 145.18 193.78 145.23 195.43 C 142.27 189.55 137.43 184.24 131.00 182.26 C 129.21 183.50 127.77 185.16 126.25 186.71 C 125.57 185.46 124.88 184.20 124.20 182.96 C 125.54 180.64 126.90 178.32 128.68 176.31 C 128.99 175.94 129.62 175.22 129.93 174.85 C 129.91 174.22 129.89 172.97 129.88 172.34 L 129.85 171.30 Z" />
</g>
<g id="#ac2034ff">
<path fill="#ac2034" opacity="1.00" d=" M 95.02 175.70 C 97.89 176.73 100.32 178.61 102.96 180.08 C 107.42 180.40 112.28 179.43 116.03 182.51 C 118.25 181.64 120.50 180.84 122.81 180.24 C 120.39 183.63 117.90 186.97 115.17 190.12 C 109.90 195.99 102.87 199.84 97.14 205.19 C 92.65 209.34 87.46 212.75 83.67 217.61 C 77.03 226.02 69.78 233.98 63.87 242.94 C 62.23 245.37 61.40 248.21 60.57 250.99 C 60.62 248.78 60.81 246.54 61.72 244.49 C 66.92 232.38 71.32 219.78 78.79 208.80 C 85.63 198.50 89.54 186.71 95.02 175.70 M 97.96 194.97 C 102.16 196.17 104.95 191.41 105.03 187.76 C 101.47 188.29 97.73 191.02 97.96 194.97 Z" />
<path fill="#ac2034" opacity="1.00" d=" M 146.14 179.19 C 149.42 179.33 152.64 178.66 155.45 176.92 C 161.78 193.70 170.73 209.49 175.47 226.84 C 171.48 223.59 168.19 219.54 165.02 215.51 C 164.50 216.06 164.00 216.62 163.50 217.19 C 165.17 219.00 166.79 220.88 168.13 222.96 C 163.89 221.82 162.61 216.87 160.20 213.69 C 160.59 214.17 161.38 215.14 161.78 215.63 C 162.37 215.03 162.95 214.43 163.53 213.82 C 157.30 205.59 151.26 197.23 145.67 188.55 C 145.86 185.43 146.01 182.31 146.14 179.19 M 153.05 191.20 C 153.67 192.80 154.18 194.47 155.07 195.96 C 156.68 196.97 158.51 197.54 160.27 198.25 C 159.76 196.63 159.24 195.02 158.73 193.41 C 157.91 193.42 157.10 193.43 156.29 193.44 C 155.71 192.35 155.13 191.27 154.55 190.19 C 154.18 190.44 153.42 190.95 153.05 191.20 Z" />
<path fill="#ac2034" opacity="1.00" d=" M 178.25 234.53 C 187.00 256.94 189.65 281.70 185.46 305.41 C 183.78 309.12 179.75 310.92 176.74 313.39 C 178.92 293.98 178.04 274.37 175.93 254.99 C 175.33 250.72 176.52 246.48 176.41 242.21 C 177.41 241.49 178.42 240.76 179.43 240.05 C 179.02 238.21 178.60 236.38 178.25 234.53 Z" />
</g>
<g id="#4d4871ff">
<path fill="#4d4871" opacity="1.00" d=" M 126.25 186.71 C 127.77 185.16 129.21 183.50 131.00 182.26 C 137.43 184.24 142.27 189.55 145.23 195.43 C 145.34 196.10 145.55 197.45 145.66 198.13 C 144.63 198.16 142.58 198.24 141.55 198.28 C 141.59 197.46 141.65 195.83 141.69 195.01 C 138.32 194.67 134.92 194.91 131.57 194.51 C 130.19 194.32 129.78 192.72 128.91 191.82 C 129.69 191.26 131.25 190.13 132.02 189.57 C 131.08 189.60 129.20 189.66 128.26 189.70 C 127.59 188.70 126.92 187.70 126.25 186.71 Z" />
<path fill="#4d4871" opacity="1.00" d=" M 92.90 233.44 C 96.35 221.95 104.75 212.80 113.83 205.32 C 118.59 206.52 124.36 206.42 127.47 210.88 C 133.86 210.86 141.35 212.10 146.43 207.25 C 147.71 207.04 148.99 206.83 150.27 206.63 C 158.33 212.41 162.98 221.36 166.77 230.26 C 158.95 233.84 150.41 235.61 141.95 236.95 C 125.61 239.61 108.74 238.11 92.90 233.44 M 112.38 219.45 C 110.25 221.06 106.90 223.02 107.77 226.18 C 110.33 224.35 112.75 222.35 115.14 220.30 C 114.24 220.06 113.29 218.59 112.38 219.45 M 112.87 228.29 C 116.82 226.64 120.57 224.04 122.29 219.97 C 117.78 219.85 113.08 223.65 112.87 228.29 Z" />
</g>
<g id="#3f3558ff">
<path fill="#3f3558" opacity="1.00" d=" M 123.18 185.01 C 124.30 186.65 125.42 188.30 126.55 189.95 C 126.16 190.45 125.39 191.47 125.01 191.97 C 125.71 192.07 127.11 192.27 127.81 192.37 C 128.14 193.10 128.48 193.83 128.81 194.56 C 127.83 195.15 126.85 195.75 125.87 196.35 C 126.91 196.46 128.99 196.68 130.03 196.79 C 127.08 200.00 122.01 197.64 118.16 197.79 C 117.97 195.68 116.89 193.25 118.34 191.35 C 119.79 189.12 121.56 187.12 123.18 185.01 Z" />
</g>
<g id="#8d1229ff">
<path fill="#8d1229" opacity="1.00" d=" M 153.05 191.20 C 153.42 190.95 154.18 190.44 154.55 190.19 C 155.13 191.27 155.71 192.35 156.29 193.44 C 157.10 193.43 157.91 193.42 158.73 193.41 C 159.24 195.02 159.76 196.63 160.27 198.25 C 158.51 197.54 156.68 196.97 155.07 195.96 C 154.18 194.47 153.67 192.80 153.05 191.20 Z" />
</g>
<g id="#aaaab9ff">
<path fill="#aaaab9" opacity="1.00" d=" M 113.51 195.99 C 113.91 195.43 114.70 194.30 115.10 193.73 C 115.50 194.57 116.31 196.25 116.72 197.09 C 115.98 197.27 114.50 197.64 113.76 197.82 C 113.34 200.12 112.66 202.43 110.28 203.37 C 110.09 202.21 109.71 199.89 109.52 198.73 C 108.16 201.01 107.55 204.32 110.99 204.97 C 109.50 205.95 108.03 206.96 106.55 207.96 C 104.82 205.65 104.92 202.09 107.07 200.09 C 108.96 198.36 111.21 197.09 113.51 195.99 Z" />
</g>
<g id="#8695b4ff">
<path fill="#8695b4" opacity="1.00" d=" M 131.32 196.34 C 134.13 196.26 136.94 196.25 139.76 196.33 C 139.88 199.72 139.92 203.13 139.64 206.53 C 136.69 206.60 133.74 206.66 130.79 206.46 C 130.73 203.08 130.81 199.69 131.32 196.34 M 133.61 198.65 C 133.63 200.60 133.66 202.56 133.69 204.52 C 135.54 204.47 137.43 204.38 138.99 203.24 C 138.08 203.02 136.27 202.59 135.36 202.37 L 135.43 200.97 C 136.73 200.40 137.95 199.67 139.07 198.79 C 137.25 198.65 135.43 198.63 133.61 198.65 Z" />
</g>
<g id="#15181dff">
<path fill="#15181d" opacity="1.00" d=" M 133.61 198.65 C 135.43 198.63 137.25 198.65 139.07 198.79 C 137.95 199.67 136.73 200.40 135.43 200.97 L 135.36 202.37 C 136.27 202.59 138.08 203.02 138.99 203.24 C 137.43 204.38 135.54 204.47 133.69 204.52 C 133.66 202.56 133.63 200.60 133.61 198.65 Z" />
</g>
<g id="#54383fff">
<path fill="#54383f" opacity="1.00" d=" M 142.29 199.38 C 144.39 199.36 146.49 199.34 148.60 199.33 C 148.92 200.11 149.56 201.69 149.88 202.48 C 147.29 203.07 144.65 203.42 142.00 203.56 C 142.09 202.16 142.19 200.77 142.29 199.38 Z" />
</g>
<g id="#563a41ff">
<path fill="#563a41" opacity="1.00" d=" M 115.20 202.45 C 115.33 201.43 115.46 200.41 115.59 199.40 C 119.97 200.01 124.37 200.42 128.80 200.55 C 128.87 201.28 129.02 202.73 129.10 203.46 C 124.46 203.12 119.84 202.75 115.20 202.45 Z" />
</g>
<g id="#390305ff">
<path fill="#390305" opacity="1.00" d=" M 150.78 201.76 C 153.27 203.94 155.36 206.53 157.05 209.38 C 154.35 207.54 150.24 205.69 150.78 201.76 Z" />
</g>
<g id="#392e5eff">
<path fill="#392e5e" opacity="1.00" d=" M 113.83 205.32 C 118.56 204.04 123.47 205.24 128.26 205.45 C 130.03 208.03 132.96 208.72 135.93 208.21 C 140.57 208.64 143.30 203.74 148.02 204.46 C 148.77 205.18 149.52 205.91 150.27 206.63 C 148.99 206.83 147.71 207.04 146.43 207.25 C 141.35 212.10 133.86 210.86 127.47 210.88 C 124.36 206.42 118.59 206.52 113.83 205.32 Z" />
</g>
<g id="#3c3260ff">
<path fill="#3c3260" opacity="1.00" d=" M 112.38 219.45 C 113.29 218.59 114.24 220.06 115.14 220.30 C 112.75 222.35 110.33 224.35 107.77 226.18 C 106.90 223.02 110.25 221.06 112.38 219.45 Z" />
</g>
<g id="#392e5dff">
<path fill="#392e5d" opacity="1.00" d=" M 112.87 228.29 C 113.08 223.65 117.78 219.85 122.29 219.97 C 120.57 224.04 116.82 226.64 112.87 228.29 Z" />
</g>
<g id="#ca9b8eff">
<path fill="#ca9b8e" opacity="1.00" d=" M 166.96 224.70 C 167.70 224.45 169.20 223.96 169.95 223.71 C 170.66 225.21 171.37 226.71 172.06 228.22 C 173.31 228.21 174.56 228.22 175.81 228.23 C 175.80 229.01 175.78 230.57 175.77 231.35 C 177.20 232.46 177.56 234.87 175.19 234.98 C 173.87 233.22 172.35 231.39 169.91 231.74 C 168.88 229.41 167.90 227.06 166.96 224.70 Z" />
</g>
<g id="#966a7bff">
<path fill="#966a7b" opacity="1.00" d=" M 169.91 231.74 C 172.35 231.39 173.87 233.22 175.19 234.98 C 176.39 236.65 177.88 238.69 176.46 240.74 C 174.42 238.99 172.59 236.84 170.04 235.80 C 167.74 235.21 165.34 235.28 162.98 235.21 C 165.29 234.05 167.57 232.83 169.91 231.74 Z" />
</g>
<g id="#25203bff">
<path fill="#25203b" opacity="1.00" d=" M 135.83 240.74 C 142.57 239.46 149.43 239.00 156.16 237.70 C 156.04 242.50 156.00 247.32 155.47 252.11 C 155.29 250.49 155.11 248.87 154.64 247.31 C 149.02 245.08 142.76 245.27 136.97 243.57 C 136.89 244.76 136.82 245.96 136.77 247.16 C 136.36 245.04 136.09 242.89 135.83 240.74 Z" />
<path fill="#25203b" opacity="1.00" d=" M 108.34 240.05 C 109.74 239.21 111.53 240.04 113.07 240.03 C 117.88 240.78 122.77 240.81 127.63 240.75 C 127.60 242.80 127.58 244.86 127.55 246.92 C 121.38 247.10 115.19 246.66 109.19 245.14 C 108.92 248.19 108.67 251.25 108.15 254.27 C 108.17 249.53 107.69 244.76 108.34 240.05 Z" />
</g>
<g id="#473c62ff">
<path fill="#473c62" opacity="1.00" d=" M 163.17 245.07 C 161.47 242.82 161.70 240.12 162.52 237.59 C 163.53 237.55 165.56 237.46 166.58 237.42 C 166.54 239.13 166.61 240.86 166.34 242.55 C 165.38 243.51 164.23 244.24 163.17 245.07 Z" />
</g>
<g id="#332b42ff">
<path fill="#332b42" opacity="1.00" d=" M 166.58 237.42 C 169.65 237.99 172.26 239.67 174.49 241.80 C 174.14 244.13 173.81 246.46 173.50 248.80 C 172.70 248.58 171.91 248.36 171.12 248.15 C 171.16 246.81 171.20 245.48 171.24 244.15 C 169.93 244.71 168.62 245.27 167.31 245.85 C 166.48 245.65 165.65 245.49 164.81 245.38 C 164.60 245.48 164.17 245.67 163.95 245.77 L 162.87 246.31 C 162.95 246.00 163.10 245.38 163.17 245.07 C 164.23 244.24 165.38 243.51 166.34 242.55 C 166.61 240.86 166.54 239.13 166.58 237.42 Z" />
<path fill="#332b42" opacity="1.00" d=" M 136.97 243.57 C 142.76 245.27 149.02 245.08 154.64 247.31 C 155.11 248.87 155.29 250.49 155.47 252.11 C 154.99 257.97 154.52 263.84 154.56 269.73 C 151.67 269.30 148.79 268.75 145.87 268.65 C 144.99 269.69 144.47 270.96 143.85 272.16 C 141.93 272.62 140.00 273.03 138.07 273.44 C 138.76 264.67 138.52 255.80 136.77 247.16 C 136.82 245.96 136.89 244.76 136.97 243.57 Z" />
<path fill="#332b42" opacity="1.00" d=" M 109.19 245.14 C 115.19 246.66 121.38 247.10 127.55 246.92 C 125.86 256.27 124.12 265.72 120.28 274.47 C 117.78 273.45 115.14 272.88 112.48 272.53 C 109.65 269.68 106.81 272.99 103.98 274.00 C 103.82 273.69 103.48 273.05 103.31 272.73 C 104.62 266.51 107.17 260.58 108.15 254.27 C 108.67 251.25 108.92 248.19 109.19 245.14 Z" />
</g>
<g id="#530407ff">
<path fill="#530407" opacity="1.00" d=" M 102.53 238.30 C 103.06 238.60 104.11 239.18 104.63 239.48 C 105.58 243.90 105.32 248.49 105.32 252.99 C 105.38 255.71 104.42 258.28 103.04 260.57 C 102.22 253.19 101.96 245.72 102.53 238.30 Z" />
<path fill="#530407" opacity="1.00" d=" M 131.24 240.68 C 132.32 241.18 133.80 241.45 133.73 242.96 C 135.12 251.88 137.46 260.91 135.78 269.97 C 134.69 270.21 133.60 270.46 132.51 270.71 C 132.29 272.35 132.06 274.00 131.82 275.64 C 130.33 276.93 127.92 278.24 128.48 280.61 C 129.23 282.76 130.47 284.70 131.51 286.73 C 132.79 287.45 134.06 288.17 135.33 288.90 C 135.22 290.36 135.12 291.84 135.02 293.31 C 132.41 293.42 129.80 293.48 127.20 293.48 C 126.85 291.34 126.49 289.21 126.08 287.09 C 124.23 289.62 122.72 292.50 120.16 294.43 C 117.76 288.38 127.77 287.64 126.22 281.87 C 125.54 280.39 123.75 279.90 122.63 278.82 C 123.08 273.48 125.09 268.42 126.37 263.25 C 128.60 255.87 129.91 248.26 131.24 240.68 Z" />
<path fill="#530407" opacity="1.00" d=" M 173.41 255.64 C 175.69 268.12 176.18 280.94 175.57 293.59 C 172.40 293.08 169.24 292.60 166.06 292.15 C 165.12 291.00 164.18 289.85 163.24 288.71 C 163.11 289.53 162.84 291.17 162.71 291.99 C 160.96 292.12 159.21 292.26 157.47 292.39 C 157.04 287.98 162.21 287.97 164.64 285.65 C 164.45 284.34 164.08 283.07 163.78 281.79 C 164.13 279.59 164.19 277.37 163.95 275.16 C 162.51 275.24 161.09 275.33 159.66 275.41 C 158.74 274.64 157.82 273.87 156.91 273.11 C 156.83 268.47 156.84 263.84 156.94 259.21 C 158.17 259.34 159.40 259.48 160.63 259.63 C 162.02 261.91 164.21 263.45 166.72 264.29 C 168.24 264.72 170.04 266.14 171.46 264.74 C 172.29 261.74 172.69 258.65 173.41 255.64 Z" />
</g>
<g id="#fee1c2ff">
<path fill="#fee1c2" opacity="1.00" d=" M 164.81 245.38 C 165.65 245.49 166.48 245.65 167.31 245.85 L 168.85 246.24 C 168.59 248.97 168.83 251.96 167.08 254.30 C 165.20 251.80 164.92 248.64 163.95 245.77 C 164.17 245.67 164.60 245.48 164.81 245.38 Z" />
</g>
<g id="#a15c51ff">
<path fill="#a15c51" opacity="1.00" d=" M 158.88 249.62 C 159.53 249.60 160.83 249.56 161.48 249.53 C 161.70 252.15 160.46 254.60 158.59 256.36 C 158.51 254.11 158.42 251.84 158.88 249.62 Z" />
<path fill="#a15c51" opacity="1.00" d=" M 163.51 252.10 C 164.29 253.16 165.06 254.23 165.85 255.30 C 165.43 257.12 165.67 259.26 164.31 260.74 C 161.57 258.51 162.98 254.95 163.51 252.10 Z" />
</g>
<g id="#ffe7c8ff">
<path fill="#ffe7c8" opacity="1.00" d=" M 169.07 254.95 C 169.64 253.44 170.20 251.92 170.82 250.44 C 172.57 254.45 169.90 258.95 170.11 263.23 C 166.83 262.01 166.00 256.83 169.07 254.95 Z" />
</g>
<g id="#050507fc">
<path fill="#050507" opacity="1.00" d=" M 39.99 263.89 C 42.21 263.35 45.59 262.78 46.45 265.63 C 47.92 268.38 45.17 271.98 42.11 270.94 C 38.71 270.31 39.85 266.31 39.99 263.89 M 41.73 265.39 C 41.68 266.45 41.64 267.51 41.59 268.58 C 42.59 268.57 43.60 268.57 44.61 268.56 C 44.61 267.93 44.62 266.65 44.62 266.01 C 43.66 265.80 42.69 265.59 41.73 265.39 Z" />
</g>
<g id="#111216ff">
<path fill="#111216" opacity="1.00" d=" M 74.06 269.87 C 79.55 271.16 82.60 278.35 78.38 282.63 C 78.60 277.89 76.68 273.68 74.06 269.87 Z" />
</g>
<g id="#c79a91ff">
<path fill="#c79a91" opacity="1.00" d=" M 146.48 269.95 C 148.88 270.48 149.63 272.82 150.39 274.87 C 150.84 273.44 151.30 272.02 151.81 270.62 C 152.57 272.00 153.31 273.42 154.02 274.84 C 156.68 275.12 158.24 277.22 159.39 279.41 C 160.44 278.39 161.60 277.50 162.91 276.82 C 162.16 279.50 160.37 282.19 162.50 284.79 C 159.86 284.15 157.40 282.99 155.22 281.38 C 154.33 282.25 153.48 283.15 152.49 283.91 C 151.59 283.72 149.78 283.32 148.87 283.13 C 149.65 282.70 151.20 281.84 151.98 281.42 C 151.62 280.98 150.91 280.10 150.56 279.66 C 151.23 279.85 152.57 280.21 153.24 280.39 C 153.20 279.72 153.11 278.38 153.06 277.71 C 148.01 278.40 143.16 280.03 138.22 281.23 L 138.29 280.25 C 138.69 279.44 139.10 278.64 139.51 277.84 C 140.32 278.31 141.93 279.24 142.74 279.70 C 142.26 277.99 141.16 276.91 139.43 276.45 C 139.64 276.00 140.07 275.08 140.28 274.62 C 142.32 274.35 144.35 274.01 146.39 273.71 C 146.41 272.45 146.44 271.20 146.48 269.95 Z" />
</g>
<g id="#c99b92ff">
<path fill="#c99b92" opacity="1.00" d=" M 108.56 277.09 C 108.67 275.28 108.94 273.47 109.69 271.81 C 110.91 273.65 112.01 275.58 113.08 277.52 C 113.45 276.88 114.17 275.60 114.54 274.96 C 118.21 275.53 120.98 278.72 121.70 282.27 C 121.04 282.22 119.71 282.13 119.05 282.09 C 117.53 280.81 116.23 279.30 114.92 277.82 C 114.59 278.08 113.94 278.60 113.61 278.86 C 111.98 280.14 110.38 281.45 108.78 282.77 C 107.47 282.11 106.16 281.46 104.86 280.82 C 103.97 282.20 103.13 283.62 102.06 284.88 C 101.64 285.03 100.81 285.33 100.39 285.48 C 99.68 284.27 98.97 283.07 98.26 281.87 C 98.91 281.12 99.57 280.37 100.22 279.63 C 99.31 279.66 97.48 279.73 96.57 279.76 C 98.32 278.20 99.59 275.83 101.78 274.86 C 102.43 275.30 103.75 276.17 104.40 276.61 C 104.81 276.09 105.64 275.06 106.05 274.54 C 106.89 275.38 107.73 276.23 108.56 277.09 Z" />
</g>
<g id="#cc9e95ff">
<path fill="#cc9e95" opacity="1.00" d=" M 133.47 272.06 C 136.15 272.32 137.39 274.68 137.70 277.06 C 137.08 278.19 136.55 279.37 135.99 280.54 C 134.20 280.87 132.40 281.19 130.61 281.49 C 130.63 279.02 132.39 277.74 134.52 277.10 C 134.13 275.42 133.78 273.74 133.47 272.06 Z" />
</g>
<g id="#926778ff">
<path fill="#926778" opacity="1.00" d=" M 135.99 280.54 C 136.55 279.37 137.08 278.19 137.70 277.06 C 137.85 277.86 138.14 279.45 138.29 280.25 L 138.22 281.23 C 143.16 280.03 148.01 278.40 153.06 277.71 C 153.11 278.38 153.20 279.72 153.24 280.39 C 152.57 280.21 151.23 279.85 150.56 279.66 C 150.36 279.44 149.97 279.01 149.78 278.79 C 149.77 279.34 149.76 280.45 149.75 281.00 C 149.10 281.85 148.44 282.71 147.79 283.58 C 149.33 283.89 150.92 284.24 152.49 283.91 C 153.48 283.15 154.33 282.25 155.22 281.38 C 157.40 282.99 159.86 284.15 162.50 284.79 C 161.52 284.95 160.55 285.12 159.57 285.31 C 154.64 289.99 146.88 289.79 140.78 287.80 C 139.82 288.11 137.90 288.71 136.94 289.02 C 137.37 287.58 138.19 286.41 139.40 285.52 C 139.37 284.67 139.34 283.81 139.32 282.96 C 138.42 283.21 137.53 283.47 136.65 283.73 C 136.62 284.48 136.58 285.97 136.55 286.72 C 135.17 286.28 133.80 285.81 132.45 285.29 C 132.62 284.64 132.95 283.33 133.12 282.68 C 132.28 282.28 131.45 281.88 130.61 281.49 C 132.40 281.19 134.20 280.87 135.99 280.54 Z" />
<path fill="#926778" opacity="1.00" d=" M 93.32 279.38 C 94.50 279.51 95.69 279.69 96.86 279.92 C 96.84 280.92 96.81 281.94 96.79 282.96 C 98.01 284.23 99.21 285.53 100.41 286.83 C 100.97 286.18 101.52 285.53 102.06 284.88 C 103.13 283.62 103.97 282.20 104.86 280.82 C 106.16 281.46 107.47 282.11 108.78 282.77 C 110.38 281.45 111.98 280.14 113.61 278.86 C 115.12 280.96 116.57 283.10 117.95 285.29 C 118.32 284.22 118.68 283.15 119.05 282.09 C 119.71 282.13 121.04 282.22 121.70 282.27 C 122.85 282.34 124.00 282.42 125.15 282.51 C 122.59 286.41 118.91 290.15 114.03 290.67 C 110.51 291.35 107.17 289.87 103.94 288.71 C 100.12 290.64 96.83 287.66 93.51 286.15 C 93.82 285.43 94.42 284.00 94.73 283.28 C 94.07 282.11 91.92 280.84 93.32 279.38 Z" />
</g>
<g id="#0000001c">
<path fill="#000000" opacity="0.11" d=" M 31.23 286.21 C 34.11 284.67 35.47 290.47 32.09 290.12 C 29.45 290.97 28.89 286.82 31.23 286.21 Z" />
</g>
<g id="#52333eff">
<path fill="#52333e" opacity="1.00" d=" M 137.33 291.64 C 141.24 289.43 145.71 290.78 149.91 291.02 C 150.70 292.24 151.49 293.47 152.28 294.69 C 151.45 295.97 150.62 297.26 149.81 298.57 C 151.26 297.66 152.70 296.75 154.14 295.84 C 155.21 298.83 155.60 302.03 154.32 305.04 C 152.78 304.28 151.24 303.54 149.68 302.83 C 150.71 304.14 151.79 305.42 152.87 306.69 C 151.63 308.25 150.43 309.85 149.34 311.51 C 151.26 310.51 152.89 309.07 154.39 307.53 C 156.87 312.53 158.75 317.86 162.42 322.19 C 156.17 322.35 149.91 322.07 143.67 322.43 C 150.05 322.98 156.47 322.74 162.86 322.49 C 163.63 323.61 164.41 324.75 165.19 325.88 C 156.41 326.41 147.63 325.99 138.85 325.87 C 136.75 314.56 137.65 303.06 137.33 291.64 Z" />
</g>
<g id="#412831ff">
<path fill="#412831" opacity="1.00" d=" M 150.85 290.77 C 152.29 290.53 153.74 290.31 155.19 290.10 C 154.76 291.35 154.94 293.24 153.18 293.36 C 152.60 292.71 151.43 291.42 150.85 290.77 Z" />
</g>
<g id="#51333eff">
<path fill="#51333e" opacity="1.00" d=" M 99.62 294.33 C 99.81 291.93 103.02 291.22 105.02 291.76 C 109.12 292.73 113.34 292.84 117.52 292.36 C 116.62 299.87 116.25 307.53 117.13 315.06 C 118.41 319.60 121.12 323.59 122.47 328.12 C 114.86 329.93 106.78 330.10 99.26 327.78 C 98.46 316.64 98.43 305.43 99.62 294.33 M 105.09 297.72 C 105.65 298.77 106.22 299.83 106.80 300.89 C 106.11 302.25 105.42 303.61 104.74 304.97 C 105.82 304.37 106.90 303.77 107.98 303.18 C 109.52 303.93 111.06 304.67 112.60 305.41 C 111.75 304.20 110.89 303.00 110.03 301.81 C 111.18 300.41 112.38 298.98 112.70 297.15 C 111.37 298.01 110.06 298.91 108.77 299.83 C 107.54 299.12 106.31 298.41 105.09 297.72 M 104.57 308.73 C 105.32 310.19 106.07 311.65 106.82 313.11 C 105.77 314.49 104.74 315.88 103.75 317.31 C 105.25 316.51 106.74 315.70 108.24 314.90 C 109.81 315.74 111.40 316.52 113.03 317.23 C 111.98 315.78 110.87 314.37 109.75 312.97 C 110.56 311.64 111.37 310.32 112.18 308.99 C 110.83 309.68 109.48 310.37 108.13 311.06 C 106.95 310.28 105.76 309.50 104.57 308.73 M 103.16 325.95 C 106.11 328.59 110.32 328.28 113.98 327.99 C 116.43 327.59 119.68 327.53 120.74 324.80 C 114.98 326.31 109.06 326.15 103.16 325.95 Z" />
</g>
<g id="#1d1216ff">
<path fill="#1d1216" opacity="1.00" d=" M 105.09 297.72 C 106.31 298.41 107.54 299.12 108.77 299.83 C 110.06 298.91 111.37 298.01 112.70 297.15 C 112.38 298.98 111.18 300.41 110.03 301.81 C 110.89 303.00 111.75 304.20 112.60 305.41 C 111.06 304.67 109.52 303.93 107.98 303.18 C 106.90 303.77 105.82 304.37 104.74 304.97 C 105.42 303.61 106.11 302.25 106.80 300.89 C 106.22 299.83 105.65 298.77 105.09 297.72 Z" />
</g>
<g id="#1f1318ff">
<path fill="#1f1318" opacity="1.00" d=" M 104.57 308.73 C 105.76 309.50 106.95 310.28 108.13 311.06 C 109.48 310.37 110.83 309.68 112.18 308.99 C 111.37 310.32 110.56 311.64 109.75 312.97 C 110.87 314.37 111.98 315.78 113.03 317.23 C 111.40 316.52 109.81 315.74 108.24 314.90 C 106.74 315.70 105.25 316.51 103.75 317.31 C 104.74 315.88 105.77 314.49 106.82 313.11 C 106.07 311.65 105.32 310.19 104.57 308.73 Z" />
</g>
<g id="#4a0f19ff">
<path fill="#4a0f19" opacity="1.00" d=" M 65.10 313.19 C 66.52 312.92 66.96 313.47 66.44 314.84 C 65.02 315.10 64.58 314.55 65.10 313.19 Z" />
</g>
<g id="#0000004d">
<path fill="#000000" opacity="0.30" d=" M 119.21 315.09 C 124.59 315.02 129.96 314.99 135.34 314.99 C 135.59 319.42 136.25 323.81 136.77 328.21 C 147.74 328.55 158.83 329.22 169.72 327.57 C 166.50 323.86 163.50 319.96 160.87 315.81 C 165.22 315.95 169.56 316.41 173.90 316.62 C 174.44 316.63 174.98 316.64 175.53 316.64 C 186.76 317.72 198.11 318.69 209.03 321.69 C 211.55 322.62 214.88 323.22 216.07 325.96 C 215.02 328.78 211.59 329.34 209.09 330.30 C 193.73 334.40 177.75 335.09 161.98 336.20 C 140.64 337.26 119.26 337.25 97.93 336.25 C 82.91 335.24 67.76 334.50 53.04 331.13 C 49.79 330.24 46.26 329.55 43.64 327.30 C 42.47 326.48 43.17 324.78 44.18 324.20 C 50.98 319.84 59.54 320.62 66.79 317.57 C 67.61 318.10 68.42 318.63 69.26 319.16 C 69.19 318.79 69.07 318.04 69.01 317.66 C 78.21 317.55 87.34 316.16 96.55 315.91 C 96.50 320.36 96.57 324.82 96.78 329.27 C 102.89 331.68 109.54 331.82 116.03 331.80 C 118.98 331.70 122.24 331.58 124.62 329.58 C 124.50 324.33 120.60 320.06 119.21 315.09 Z" />
</g>
<g id="#2f1d24ff">
<path fill="#2f1d24" opacity="1.00" d=" M 103.16 325.95 C 109.06 326.15 114.98 326.31 120.74 324.80 C 119.68 327.53 116.43 327.59 113.98 327.99 C 110.32 328.28 106.11 328.59 103.16 325.95 Z" />
</g>
</svg>
